<svg width="542" height="587" viewBox="0 0 542 587" fill="none" xmlns="http://www.w3.org/2000/svg">
<g filter="url(#filter0_di_7_404)">
<path d="M1 90.9446C1 80.9489 8.37985 72.488 18.2829 71.1301L514.283 3.11513C526.296 1.46778 537 10.804 537 22.9297V558.863C537 570.709 526.762 579.959 514.977 578.761L18.9768 528.328C8.76718 527.29 1 518.693 1 508.43V90.9446Z" fill="white"/>
<path d="M197.006 91V67.7273H204.869C206.688 67.7273 208.18 68.0379 209.347 68.6591C210.513 69.2727 211.377 70.1174 211.938 71.1932C212.498 72.2689 212.778 73.4924 212.778 74.8636C212.778 76.2348 212.498 77.4508 211.938 78.5114C211.377 79.572 210.517 80.4053 209.358 81.0114C208.199 81.6098 206.718 81.9091 204.915 81.9091H198.551V79.3636H204.824C206.066 79.3636 207.066 79.1818 207.824 78.8182C208.589 78.4545 209.142 77.9394 209.483 77.2727C209.831 76.5985 210.006 75.7955 210.006 74.8636C210.006 73.9318 209.831 73.1174 209.483 72.4205C209.134 71.7235 208.578 71.1856 207.812 70.8068C207.047 70.4205 206.036 70.2273 204.778 70.2273H199.824V91H197.006ZM207.96 80.5455L213.688 91H210.415L204.778 80.5455H207.96ZM217.224 91V67.7273H231.27V70.2273H220.043V78.0909H230.543V80.5909H220.043V88.5H231.452V91H217.224ZM252.009 75C251.759 74.2348 251.429 73.5492 251.02 72.9432C250.618 72.3295 250.137 71.8068 249.577 71.375C249.024 70.9432 248.395 70.6136 247.69 70.3864C246.986 70.1591 246.213 70.0455 245.372 70.0455C243.993 70.0455 242.74 70.4015 241.611 71.1136C240.482 71.8258 239.584 72.875 238.918 74.2614C238.251 75.6477 237.918 77.3485 237.918 79.3636C237.918 81.3788 238.255 83.0795 238.929 84.4659C239.603 85.8523 240.516 86.9015 241.668 87.6136C242.819 88.3258 244.115 88.6818 245.554 88.6818C246.887 88.6818 248.062 88.3977 249.077 87.8295C250.099 87.2538 250.895 86.4432 251.463 85.3977C252.039 84.3447 252.327 83.1061 252.327 81.6818L253.19 81.8636H246.19V79.3636H255.054V81.8636C255.054 83.7803 254.645 85.447 253.827 86.8636C253.016 88.2803 251.895 89.3788 250.463 90.1591C249.039 90.9318 247.402 91.3182 245.554 91.3182C243.493 91.3182 241.683 90.8333 240.122 89.8636C238.569 88.8939 237.357 87.5152 236.486 85.7273C235.622 83.9394 235.19 81.8182 235.19 79.3636C235.19 77.5227 235.437 75.8674 235.929 74.3977C236.429 72.9205 237.134 71.6629 238.043 70.625C238.952 69.5871 240.027 68.7917 241.27 68.2386C242.512 67.6856 243.88 67.4091 245.372 67.4091C246.599 67.4091 247.743 67.5947 248.804 67.9659C249.872 68.3295 250.823 68.8485 251.656 69.5227C252.497 70.1894 253.198 70.9886 253.759 71.9205C254.319 72.8447 254.705 73.8712 254.918 75H252.009ZM262.449 67.7273V91H259.631V67.7273H262.449ZM280.577 73.5455C280.44 72.3939 279.887 71.5 278.918 70.8636C277.948 70.2273 276.759 69.9091 275.349 69.9091C274.319 69.9091 273.418 70.0758 272.645 70.4091C271.88 70.7424 271.281 71.2008 270.849 71.7841C270.425 72.3674 270.213 73.0303 270.213 73.7727C270.213 74.3939 270.361 74.928 270.656 75.375C270.959 75.8144 271.346 76.1818 271.815 76.4773C272.285 76.7652 272.777 77.0038 273.293 77.1932C273.808 77.375 274.281 77.5227 274.713 77.6364L277.077 78.2727C277.683 78.4318 278.357 78.6515 279.099 78.9318C279.849 79.2121 280.565 79.5947 281.247 80.0795C281.937 80.5568 282.505 81.1705 282.952 81.9205C283.399 82.6705 283.622 83.5909 283.622 84.6818C283.622 85.9394 283.293 87.0758 282.634 88.0909C281.982 89.1061 281.027 89.9129 279.77 90.5114C278.52 91.1098 277.001 91.4091 275.213 91.4091C273.546 91.4091 272.103 91.1402 270.884 90.6023C269.671 90.0644 268.717 89.3144 268.02 88.3523C267.33 87.3902 266.94 86.2727 266.849 85H269.759C269.834 85.8788 270.13 86.6061 270.645 87.1818C271.168 87.75 271.827 88.1742 272.622 88.4545C273.425 88.7273 274.289 88.8636 275.213 88.8636C276.289 88.8636 277.255 88.6894 278.111 88.3409C278.967 87.9848 279.645 87.4924 280.145 86.8636C280.645 86.2273 280.895 85.4848 280.895 84.6364C280.895 83.8636 280.679 83.2348 280.247 82.75C279.815 82.2652 279.247 81.8712 278.543 81.5682C277.838 81.2652 277.077 81 276.259 80.7727L273.395 79.9545C271.577 79.4318 270.137 78.6856 269.077 77.7159C268.016 76.7462 267.486 75.4773 267.486 73.9091C267.486 72.6061 267.838 71.4697 268.543 70.5C269.255 69.5227 270.209 68.7652 271.406 68.2273C272.611 67.6818 273.955 67.4091 275.44 67.4091C276.94 67.4091 278.274 67.678 279.44 68.2159C280.607 68.7462 281.531 69.4735 282.213 70.3977C282.902 71.322 283.266 72.3712 283.304 73.5455H280.577ZM286.733 70.2273V67.7273H304.188V70.2273H296.869V91H294.051V70.2273H286.733ZM308.287 91V67.7273H322.332V70.2273H311.105V78.0909H321.605V80.5909H311.105V88.5H322.514V91H308.287ZM327.162 91V67.7273H335.026C336.844 67.7273 338.336 68.0379 339.503 68.6591C340.67 69.2727 341.533 70.1174 342.094 71.1932C342.654 72.2689 342.935 73.4924 342.935 74.8636C342.935 76.2348 342.654 77.4508 342.094 78.5114C341.533 79.572 340.673 80.4053 339.514 81.0114C338.355 81.6098 336.874 81.9091 335.071 81.9091H328.707V79.3636H334.98C336.223 79.3636 337.223 79.1818 337.98 78.8182C338.745 78.4545 339.298 77.9394 339.639 77.2727C339.988 76.5985 340.162 75.7955 340.162 74.8636C340.162 73.9318 339.988 73.1174 339.639 72.4205C339.291 71.7235 338.734 71.1856 337.969 70.8068C337.204 70.4205 336.192 70.2273 334.935 70.2273H329.98V91H327.162ZM338.116 80.5455L343.844 91H340.571L334.935 80.5455H338.116Z" fill="black"/>
<path d="M48.4091 152V140.364H55.3864V141.614H49.8182V145.545H54.8636V146.795H49.8182V152H48.4091ZM57.3679 152V143.273H58.7088V152H57.3679ZM58.0497 141.818C57.7884 141.818 57.563 141.729 57.3736 141.551C57.188 141.373 57.0952 141.159 57.0952 140.909C57.0952 140.659 57.188 140.445 57.3736 140.267C57.563 140.089 57.7884 140 58.0497 140C58.3111 140 58.5346 140.089 58.7202 140.267C58.9096 140.445 59.0043 140.659 59.0043 140.909C59.0043 141.159 58.9096 141.373 58.7202 141.551C58.5346 141.729 58.3111 141.818 58.0497 141.818ZM60.9148 152V143.273H62.2102V144.591H62.3011C62.4602 144.159 62.7481 143.809 63.1648 143.54C63.5814 143.271 64.0511 143.136 64.5739 143.136C64.6723 143.136 64.7955 143.138 64.9432 143.142C65.0909 143.146 65.2027 143.152 65.2784 143.159V144.523C65.233 144.511 65.1288 144.494 64.9659 144.472C64.8068 144.445 64.6383 144.432 64.4602 144.432C64.036 144.432 63.6572 144.521 63.3239 144.699C62.9943 144.873 62.733 145.116 62.5398 145.426C62.3504 145.733 62.2557 146.083 62.2557 146.477V152H60.9148ZM72.7997 145.227L71.5952 145.568C71.5194 145.367 71.4077 145.172 71.2599 144.983C71.116 144.79 70.919 144.631 70.669 144.506C70.419 144.381 70.099 144.318 69.7088 144.318C69.1747 144.318 68.7296 144.441 68.3736 144.688C68.0213 144.93 67.8452 145.239 67.8452 145.614C67.8452 145.947 67.9664 146.21 68.2088 146.403C68.4512 146.597 68.83 146.758 69.3452 146.886L70.6406 147.205C71.4209 147.394 72.0024 147.684 72.3849 148.074C72.7675 148.46 72.9588 148.958 72.9588 149.568C72.9588 150.068 72.8149 150.515 72.527 150.909C72.2429 151.303 71.8452 151.614 71.3338 151.841C70.8224 152.068 70.2277 152.182 69.5497 152.182C68.6596 152.182 67.9228 151.989 67.3395 151.602C66.7562 151.216 66.3868 150.652 66.2315 149.909L67.5043 149.591C67.6255 150.061 67.8546 150.413 68.1918 150.648C68.5327 150.883 68.9777 151 69.527 151C70.152 151 70.6482 150.867 71.0156 150.602C71.3868 150.333 71.5724 150.011 71.5724 149.636C71.5724 149.333 71.4664 149.08 71.2543 148.875C71.0421 148.667 70.7164 148.511 70.277 148.409L68.8224 148.068C68.0232 147.879 67.4361 147.585 67.0611 147.188C66.6899 146.786 66.5043 146.284 66.5043 145.682C66.5043 145.189 66.6425 144.754 66.919 144.375C67.1993 143.996 67.58 143.699 68.0611 143.483C68.5459 143.267 69.0952 143.159 69.7088 143.159C70.5724 143.159 71.2505 143.348 71.7429 143.727C72.2391 144.106 72.5914 144.606 72.7997 145.227ZM78.5227 143.273V144.409H74V143.273H78.5227ZM75.3182 141.182H76.6591V149.5C76.6591 149.879 76.714 150.163 76.8239 150.352C76.9375 150.538 77.0814 150.663 77.2557 150.727C77.4337 150.788 77.6212 150.818 77.8182 150.818C77.9659 150.818 78.0871 150.811 78.1818 150.795C78.2765 150.777 78.3523 150.761 78.4091 150.75L78.6818 151.955C78.5909 151.989 78.464 152.023 78.3011 152.057C78.1383 152.095 77.9318 152.114 77.6818 152.114C77.303 152.114 76.9318 152.032 76.5682 151.869C76.2083 151.706 75.9091 151.458 75.6705 151.125C75.4356 150.792 75.3182 150.371 75.3182 149.864V141.182ZM93.9489 140.364V152H92.5852L86.2443 142.864H86.1307V152H84.7216V140.364H86.0852L92.4489 149.523H92.5625V140.364H93.9489ZM98.9048 152.205C98.3518 152.205 97.8499 152.1 97.3991 151.892C96.9484 151.68 96.5904 151.375 96.3253 150.977C96.0601 150.576 95.9276 150.091 95.9276 149.523C95.9276 149.023 96.026 148.617 96.223 148.307C96.42 147.992 96.6832 147.746 97.0128 147.568C97.3423 147.39 97.706 147.258 98.1037 147.17C98.5052 147.08 98.9086 147.008 99.3139 146.955C99.8442 146.886 100.274 146.835 100.604 146.801C100.937 146.763 101.179 146.701 101.331 146.614C101.486 146.527 101.564 146.375 101.564 146.159V146.114C101.564 145.553 101.411 145.117 101.104 144.807C100.801 144.496 100.34 144.341 99.723 144.341C99.0829 144.341 98.581 144.481 98.2173 144.761C97.8537 145.042 97.598 145.341 97.4503 145.659L96.1776 145.205C96.4048 144.674 96.7079 144.261 97.0866 143.966C97.4692 143.667 97.8859 143.458 98.3366 143.341C98.7912 143.22 99.2382 143.159 99.6776 143.159C99.9579 143.159 100.28 143.193 100.643 143.261C101.011 143.326 101.365 143.46 101.706 143.665C102.051 143.869 102.337 144.178 102.564 144.591C102.791 145.004 102.905 145.557 102.905 146.25V152H101.564V150.818H101.496C101.405 151.008 101.253 151.21 101.041 151.426C100.829 151.642 100.547 151.826 100.195 151.977C99.8423 152.129 99.4124 152.205 98.9048 152.205ZM99.1094 151C99.6397 151 100.087 150.896 100.45 150.688C100.818 150.479 101.094 150.21 101.28 149.881C101.469 149.551 101.564 149.205 101.564 148.841V147.614C101.507 147.682 101.382 147.744 101.189 147.801C101 147.854 100.78 147.902 100.53 147.943C100.284 147.981 100.043 148.015 99.8082 148.045C99.5772 148.072 99.3897 148.095 99.2457 148.114C98.8973 148.159 98.5715 148.233 98.2685 148.335C97.9692 148.434 97.7268 148.583 97.5412 148.784C97.3594 148.981 97.2685 149.25 97.2685 149.591C97.2685 150.057 97.4408 150.409 97.7855 150.648C98.134 150.883 98.5753 151 99.1094 151ZM105.102 152V143.273H106.398V144.636H106.511C106.693 144.17 106.987 143.809 107.392 143.551C107.797 143.29 108.284 143.159 108.852 143.159C109.428 143.159 109.907 143.29 110.29 143.551C110.676 143.809 110.977 144.17 111.193 144.636H111.284C111.508 144.186 111.843 143.828 112.29 143.562C112.737 143.294 113.273 143.159 113.898 143.159C114.678 143.159 115.316 143.403 115.812 143.892C116.309 144.377 116.557 145.133 116.557 146.159V152H115.216V146.159C115.216 145.515 115.04 145.055 114.688 144.778C114.335 144.502 113.92 144.364 113.443 144.364C112.83 144.364 112.354 144.549 112.017 144.92C111.68 145.288 111.511 145.754 111.511 146.318V152H110.148V146.023C110.148 145.527 109.987 145.127 109.665 144.824C109.343 144.517 108.928 144.364 108.42 144.364C108.072 144.364 107.746 144.456 107.443 144.642C107.144 144.828 106.902 145.085 106.716 145.415C106.534 145.741 106.443 146.117 106.443 146.545V152H105.102ZM122.418 152.182C121.577 152.182 120.851 151.996 120.241 151.625C119.635 151.25 119.168 150.727 118.838 150.057C118.512 149.383 118.349 148.598 118.349 147.705C118.349 146.811 118.512 146.023 118.838 145.341C119.168 144.655 119.626 144.121 120.213 143.739C120.804 143.352 121.493 143.159 122.281 143.159C122.736 143.159 123.185 143.235 123.628 143.386C124.071 143.538 124.474 143.784 124.838 144.125C125.202 144.462 125.491 144.909 125.707 145.466C125.923 146.023 126.031 146.708 126.031 147.523V148.091H119.304V146.932H124.668C124.668 146.439 124.569 146 124.372 145.614C124.179 145.227 123.902 144.922 123.543 144.699C123.187 144.475 122.766 144.364 122.281 144.364C121.747 144.364 121.285 144.496 120.895 144.761C120.509 145.023 120.211 145.364 120.003 145.784C119.795 146.205 119.69 146.655 119.69 147.136V147.909C119.69 148.568 119.804 149.127 120.031 149.585C120.262 150.04 120.582 150.386 120.991 150.625C121.401 150.86 121.876 150.977 122.418 150.977C122.77 150.977 123.088 150.928 123.372 150.83C123.66 150.727 123.908 150.576 124.116 150.375C124.325 150.17 124.486 149.917 124.599 149.614L125.895 149.977C125.759 150.417 125.529 150.803 125.207 151.136C124.885 151.466 124.488 151.723 124.014 151.909C123.541 152.091 123.009 152.182 122.418 152.182Z" fill="black"/>
<path d="M47 167C47 161.477 51.4772 157 57 157H226C231.523 157 236 161.477 236 167V177C236 182.523 231.523 187 226 187H57C51.4771 187 47 182.523 47 177V167Z" fill="#F0FCF6"/>
<path d="M48.4091 239V227.364H55.4318V228.614H49.8182V232.545H55.0682V233.795H49.8182V237.75H55.5227V239H48.4091ZM57.5398 239V230.273H58.8352V231.636H58.9489C59.1307 231.17 59.4242 230.809 59.8295 230.551C60.2348 230.29 60.7216 230.159 61.2898 230.159C61.8655 230.159 62.3447 230.29 62.7273 230.551C63.1136 230.809 63.4148 231.17 63.6307 231.636H63.7216C63.9451 231.186 64.2803 230.828 64.7273 230.562C65.1742 230.294 65.7102 230.159 66.3352 230.159C67.1155 230.159 67.7538 230.403 68.25 230.892C68.7462 231.377 68.9943 232.133 68.9943 233.159V239H67.6534V233.159C67.6534 232.515 67.4773 232.055 67.125 231.778C66.7727 231.502 66.358 231.364 65.8807 231.364C65.267 231.364 64.7917 231.549 64.4545 231.92C64.1174 232.288 63.9489 232.754 63.9489 233.318V239H62.5852V233.023C62.5852 232.527 62.4242 232.127 62.1023 231.824C61.7803 231.517 61.3655 231.364 60.858 231.364C60.5095 231.364 60.1837 231.456 59.8807 231.642C59.5814 231.828 59.339 232.085 59.1534 232.415C58.9716 232.741 58.8807 233.117 58.8807 233.545V239H57.5398ZM73.7642 239.205C73.2112 239.205 72.7093 239.1 72.2585 238.892C71.8078 238.68 71.4498 238.375 71.1847 237.977C70.9195 237.576 70.7869 237.091 70.7869 236.523C70.7869 236.023 70.8854 235.617 71.0824 235.307C71.2794 234.992 71.5426 234.746 71.8722 234.568C72.2017 234.39 72.5653 234.258 72.9631 234.17C73.3646 234.08 73.768 234.008 74.1733 233.955C74.7036 233.886 75.1335 233.835 75.4631 233.801C75.7964 233.763 76.0388 233.701 76.1903 233.614C76.3456 233.527 76.4233 233.375 76.4233 233.159V233.114C76.4233 232.553 76.2699 232.117 75.9631 231.807C75.66 231.496 75.1998 231.341 74.5824 231.341C73.9422 231.341 73.4403 231.481 73.0767 231.761C72.7131 232.042 72.4574 232.341 72.3097 232.659L71.0369 232.205C71.2642 231.674 71.5672 231.261 71.946 230.966C72.3286 230.667 72.7453 230.458 73.196 230.341C73.6506 230.22 74.0975 230.159 74.5369 230.159C74.8172 230.159 75.1392 230.193 75.5028 230.261C75.8703 230.326 76.2244 230.46 76.5653 230.665C76.91 230.869 77.196 231.178 77.4233 231.591C77.6506 232.004 77.7642 232.557 77.7642 233.25V239H76.4233V237.818H76.3551C76.2642 238.008 76.1127 238.21 75.9006 238.426C75.6884 238.642 75.4063 238.826 75.054 238.977C74.7017 239.129 74.2718 239.205 73.7642 239.205ZM73.9688 238C74.4991 238 74.946 237.896 75.3097 237.688C75.6771 237.479 75.9536 237.21 76.1392 236.881C76.3286 236.551 76.4233 236.205 76.4233 235.841V234.614C76.3665 234.682 76.2415 234.744 76.0483 234.801C75.8589 234.854 75.6392 234.902 75.3892 234.943C75.143 234.981 74.9025 235.015 74.6676 235.045C74.4366 235.072 74.2491 235.095 74.1051 235.114C73.7566 235.159 73.4309 235.233 73.1278 235.335C72.8286 235.434 72.5862 235.583 72.4006 235.784C72.2188 235.981 72.1278 236.25 72.1278 236.591C72.1278 237.057 72.3002 237.409 72.6449 237.648C72.9934 237.883 73.4347 238 73.9688 238ZM79.9616 239V230.273H81.3026V239H79.9616ZM80.6435 228.818C80.3821 228.818 80.1567 228.729 79.9673 228.551C79.7817 228.373 79.6889 228.159 79.6889 227.909C79.6889 227.659 79.7817 227.445 79.9673 227.267C80.1567 227.089 80.3821 227 80.6435 227C80.9048 227 81.1283 227.089 81.3139 227.267C81.5033 227.445 81.598 227.659 81.598 227.909C81.598 228.159 81.5033 228.373 81.3139 228.551C81.1283 228.729 80.9048 228.818 80.6435 228.818ZM84.8494 227.364V239H83.5085V227.364H84.8494ZM91.9645 239H90.4872L94.7599 227.364H96.2145L100.487 239H99.0099L95.5327 229.205H95.4418L91.9645 239ZM92.5099 234.455H98.4645V235.705H92.5099V234.455ZM105.163 239.182C104.436 239.182 103.794 238.998 103.237 238.631C102.68 238.259 102.245 237.737 101.93 237.062C101.616 236.384 101.459 235.583 101.459 234.659C101.459 233.742 101.616 232.947 101.93 232.273C102.245 231.598 102.682 231.078 103.243 230.71C103.804 230.343 104.451 230.159 105.186 230.159C105.754 230.159 106.203 230.254 106.533 230.443C106.866 230.629 107.12 230.841 107.294 231.08C107.472 231.314 107.61 231.508 107.709 231.659H107.822V227.364H109.163V239H107.868V237.659H107.709C107.61 237.818 107.47 238.019 107.288 238.261C107.107 238.5 106.847 238.714 106.51 238.903C106.173 239.089 105.724 239.182 105.163 239.182ZM105.345 237.977C105.883 237.977 106.338 237.837 106.709 237.557C107.08 237.273 107.362 236.881 107.555 236.381C107.749 235.877 107.845 235.295 107.845 234.636C107.845 233.985 107.75 233.415 107.561 232.926C107.372 232.434 107.091 232.051 106.72 231.778C106.349 231.502 105.891 231.364 105.345 231.364C104.777 231.364 104.304 231.509 103.925 231.801C103.55 232.089 103.268 232.481 103.078 232.977C102.893 233.47 102.8 234.023 102.8 234.636C102.8 235.258 102.894 235.822 103.084 236.33C103.277 236.833 103.561 237.235 103.936 237.534C104.315 237.83 104.785 237.977 105.345 237.977ZM114.851 239.182C114.124 239.182 113.482 238.998 112.925 238.631C112.368 238.259 111.932 237.737 111.618 237.062C111.304 236.384 111.146 235.583 111.146 234.659C111.146 233.742 111.304 232.947 111.618 232.273C111.932 231.598 112.37 231.078 112.93 230.71C113.491 230.343 114.139 230.159 114.874 230.159C115.442 230.159 115.891 230.254 116.22 230.443C116.554 230.629 116.807 230.841 116.982 231.08C117.16 231.314 117.298 231.508 117.396 231.659H117.51V227.364H118.851V239H117.555V237.659H117.396C117.298 237.818 117.158 238.019 116.976 238.261C116.794 238.5 116.535 238.714 116.197 238.903C115.86 239.089 115.411 239.182 114.851 239.182ZM115.033 237.977C115.571 237.977 116.025 237.837 116.396 237.557C116.768 237.273 117.05 236.881 117.243 236.381C117.436 235.877 117.533 235.295 117.533 234.636C117.533 233.985 117.438 233.415 117.249 232.926C117.059 232.434 116.779 232.051 116.408 231.778C116.036 231.502 115.578 231.364 115.033 231.364C114.464 231.364 113.991 231.509 113.612 231.801C113.237 232.089 112.955 232.481 112.766 232.977C112.58 233.47 112.487 234.023 112.487 234.636C112.487 235.258 112.582 235.822 112.771 236.33C112.964 236.833 113.249 237.235 113.624 237.534C114.002 237.83 114.472 237.977 115.033 237.977ZM121.243 239V230.273H122.538V231.591H122.629C122.788 231.159 123.076 230.809 123.493 230.54C123.91 230.271 124.379 230.136 124.902 230.136C125 230.136 125.124 230.138 125.271 230.142C125.419 230.146 125.531 230.152 125.607 230.159V231.523C125.561 231.511 125.457 231.494 125.294 231.472C125.135 231.445 124.966 231.432 124.788 231.432C124.364 231.432 123.985 231.521 123.652 231.699C123.322 231.873 123.061 232.116 122.868 232.426C122.679 232.733 122.584 233.083 122.584 233.477V239H121.243ZM130.339 239.182C129.499 239.182 128.773 238.996 128.163 238.625C127.557 238.25 127.089 237.727 126.76 237.057C126.434 236.383 126.271 235.598 126.271 234.705C126.271 233.811 126.434 233.023 126.76 232.341C127.089 231.655 127.548 231.121 128.135 230.739C128.726 230.352 129.415 230.159 130.203 230.159C130.658 230.159 131.107 230.235 131.55 230.386C131.993 230.538 132.396 230.784 132.76 231.125C133.124 231.462 133.413 231.909 133.629 232.466C133.845 233.023 133.953 233.708 133.953 234.523V235.091H127.226V233.932H132.589C132.589 233.439 132.491 233 132.294 232.614C132.101 232.227 131.824 231.922 131.464 231.699C131.108 231.475 130.688 231.364 130.203 231.364C129.669 231.364 129.207 231.496 128.817 231.761C128.43 232.023 128.133 232.364 127.925 232.784C127.716 233.205 127.612 233.655 127.612 234.136V234.909C127.612 235.568 127.726 236.127 127.953 236.585C128.184 237.04 128.504 237.386 128.913 237.625C129.322 237.86 129.798 237.977 130.339 237.977C130.692 237.977 131.01 237.928 131.294 237.83C131.582 237.727 131.83 237.576 132.038 237.375C132.247 237.17 132.408 236.917 132.521 236.614L133.817 236.977C133.68 237.417 133.451 237.803 133.129 238.136C132.807 238.466 132.41 238.723 131.936 238.909C131.463 239.091 130.93 239.182 130.339 239.182ZM141.925 232.227L140.72 232.568C140.644 232.367 140.533 232.172 140.385 231.983C140.241 231.79 140.044 231.631 139.794 231.506C139.544 231.381 139.224 231.318 138.834 231.318C138.3 231.318 137.855 231.441 137.499 231.688C137.146 231.93 136.97 232.239 136.97 232.614C136.97 232.947 137.091 233.21 137.334 233.403C137.576 233.597 137.955 233.758 138.47 233.886L139.766 234.205C140.546 234.394 141.127 234.684 141.51 235.074C141.893 235.46 142.084 235.958 142.084 236.568C142.084 237.068 141.94 237.515 141.652 237.909C141.368 238.303 140.97 238.614 140.459 238.841C139.947 239.068 139.353 239.182 138.675 239.182C137.785 239.182 137.048 238.989 136.464 238.602C135.881 238.216 135.512 237.652 135.357 236.909L136.629 236.591C136.75 237.061 136.98 237.413 137.317 237.648C137.658 237.883 138.103 238 138.652 238C139.277 238 139.773 237.867 140.141 237.602C140.512 237.333 140.697 237.011 140.697 236.636C140.697 236.333 140.591 236.08 140.379 235.875C140.167 235.667 139.841 235.511 139.402 235.409L137.947 235.068C137.148 234.879 136.561 234.585 136.186 234.188C135.815 233.786 135.629 233.284 135.629 232.682C135.629 232.189 135.768 231.754 136.044 231.375C136.324 230.996 136.705 230.699 137.186 230.483C137.671 230.267 138.22 230.159 138.834 230.159C139.697 230.159 140.375 230.348 140.868 230.727C141.364 231.106 141.716 231.606 141.925 232.227ZM150.034 232.227L148.83 232.568C148.754 232.367 148.642 232.172 148.494 231.983C148.35 231.79 148.153 231.631 147.903 231.506C147.653 231.381 147.333 231.318 146.943 231.318C146.409 231.318 145.964 231.441 145.608 231.688C145.256 231.93 145.08 232.239 145.08 232.614C145.08 232.947 145.201 233.21 145.443 233.403C145.686 233.597 146.064 233.758 146.58 233.886L147.875 234.205C148.655 234.394 149.237 234.684 149.619 235.074C150.002 235.46 150.193 235.958 150.193 236.568C150.193 237.068 150.049 237.515 149.761 237.909C149.477 238.303 149.08 238.614 148.568 238.841C148.057 239.068 147.462 239.182 146.784 239.182C145.894 239.182 145.157 238.989 144.574 238.602C143.991 238.216 143.621 237.652 143.466 236.909L144.739 236.591C144.86 237.061 145.089 237.413 145.426 237.648C145.767 237.883 146.212 238 146.761 238C147.386 238 147.883 237.867 148.25 237.602C148.621 237.333 148.807 237.011 148.807 236.636C148.807 236.333 148.701 236.08 148.489 235.875C148.277 235.667 147.951 235.511 147.511 235.409L146.057 235.068C145.258 234.879 144.67 234.585 144.295 234.188C143.924 233.786 143.739 233.284 143.739 232.682C143.739 232.189 143.877 231.754 144.153 231.375C144.434 230.996 144.814 230.699 145.295 230.483C145.78 230.267 146.33 230.159 146.943 230.159C147.807 230.159 148.485 230.348 148.977 230.727C149.473 231.106 149.826 231.606 150.034 232.227Z" fill="black"/>
<path d="M47 254C47 248.477 51.4772 244 57 244H471C476.523 244 481 248.477 481 254V264C481 269.523 476.523 274 471 274H57C51.4772 274 47 269.523 47 264V254Z" fill="#F0FCF6"/>
<path d="M62.7727 405H61.3636C61.2803 404.595 61.1345 404.239 60.9261 403.932C60.7216 403.625 60.4716 403.367 60.1761 403.159C59.8845 402.947 59.5606 402.788 59.2045 402.682C58.8485 402.576 58.4773 402.523 58.0909 402.523C57.3864 402.523 56.7481 402.701 56.1761 403.057C55.608 403.413 55.1553 403.938 54.8182 404.631C54.4848 405.324 54.3182 406.174 54.3182 407.182C54.3182 408.189 54.4848 409.04 54.8182 409.733C55.1553 410.426 55.608 410.951 56.1761 411.307C56.7481 411.663 57.3864 411.841 58.0909 411.841C58.4773 411.841 58.8485 411.788 59.2045 411.682C59.5606 411.576 59.8845 411.419 60.1761 411.21C60.4716 410.998 60.7216 410.739 60.9261 410.432C61.1345 410.121 61.2803 409.765 61.3636 409.364H62.7727C62.6667 409.958 62.4735 410.491 62.1932 410.96C61.9129 411.43 61.5644 411.83 61.1477 412.159C60.7311 412.485 60.2633 412.733 59.7443 412.903C59.2292 413.074 58.678 413.159 58.0909 413.159C57.0985 413.159 56.2159 412.917 55.4432 412.432C54.6705 411.947 54.0625 411.258 53.6193 410.364C53.1761 409.47 52.9545 408.409 52.9545 407.182C52.9545 405.955 53.1761 404.894 53.6193 404C54.0625 403.106 54.6705 402.417 55.4432 401.932C56.2159 401.447 57.0985 401.205 58.0909 401.205C58.678 401.205 59.2292 401.29 59.7443 401.46C60.2633 401.631 60.7311 401.881 61.1477 402.21C61.5644 402.536 61.9129 402.934 62.1932 403.403C62.4735 403.869 62.6667 404.402 62.7727 405ZM68.1634 413.182C67.3755 413.182 66.6842 412.994 66.0895 412.619C65.4986 412.244 65.0365 411.72 64.7031 411.045C64.3736 410.371 64.2088 409.583 64.2088 408.682C64.2088 407.773 64.3736 406.979 64.7031 406.301C65.0365 405.623 65.4986 405.097 66.0895 404.722C66.6842 404.347 67.3755 404.159 68.1634 404.159C68.9512 404.159 69.6406 404.347 70.2315 404.722C70.8262 405.097 71.2884 405.623 71.6179 406.301C71.9512 406.979 72.1179 407.773 72.1179 408.682C72.1179 409.583 71.9512 410.371 71.6179 411.045C71.2884 411.72 70.8262 412.244 70.2315 412.619C69.6406 412.994 68.9512 413.182 68.1634 413.182ZM68.1634 411.977C68.7618 411.977 69.2543 411.824 69.6406 411.517C70.027 411.21 70.313 410.807 70.4986 410.307C70.6842 409.807 70.777 409.265 70.777 408.682C70.777 408.098 70.6842 407.555 70.4986 407.051C70.313 406.547 70.027 406.14 69.6406 405.83C69.2543 405.519 68.7618 405.364 68.1634 405.364C67.5649 405.364 67.0724 405.519 66.6861 405.83C66.2997 406.14 66.0137 406.547 65.8281 407.051C65.6425 407.555 65.5497 408.098 65.5497 408.682C65.5497 409.265 65.6425 409.807 65.8281 410.307C66.0137 410.807 66.2997 411.21 66.6861 411.517C67.0724 411.824 67.5649 411.977 68.1634 411.977ZM75.2557 407.75V413H73.9148V404.273H75.2102V405.636H75.3239C75.5284 405.193 75.839 404.837 76.2557 404.568C76.6723 404.295 77.2102 404.159 77.8693 404.159C78.4602 404.159 78.9773 404.28 79.4205 404.523C79.8636 404.761 80.2083 405.125 80.4545 405.614C80.7008 406.098 80.8239 406.712 80.8239 407.455V413H79.483V407.545C79.483 406.86 79.3049 406.326 78.9489 405.943C78.5928 405.557 78.1042 405.364 77.483 405.364C77.0549 405.364 76.6723 405.456 76.3352 405.642C76.0019 405.828 75.7386 406.098 75.5455 406.455C75.3523 406.811 75.2557 407.242 75.2557 407.75ZM86.9105 404.273V405.409H82.206V404.273H86.9105ZM83.6151 413V403.068C83.6151 402.568 83.7325 402.152 83.9673 401.818C84.2022 401.485 84.5071 401.235 84.8821 401.068C85.2571 400.902 85.6529 400.818 86.0696 400.818C86.3991 400.818 86.6681 400.845 86.8764 400.898C87.0848 400.951 87.2401 401 87.3423 401.045L86.956 402.205C86.8878 402.182 86.7931 402.153 86.6719 402.119C86.5545 402.085 86.3991 402.068 86.206 402.068C85.7628 402.068 85.4427 402.18 85.2457 402.403C85.0526 402.627 84.956 402.955 84.956 403.386V413H83.6151ZM88.5398 413V404.273H89.8807V413H88.5398ZM89.2216 402.818C88.9602 402.818 88.7348 402.729 88.5455 402.551C88.3598 402.373 88.267 402.159 88.267 401.909C88.267 401.659 88.3598 401.445 88.5455 401.267C88.7348 401.089 88.9602 401 89.2216 401C89.483 401 89.7064 401.089 89.892 401.267C90.0814 401.445 90.1761 401.659 90.1761 401.909C90.1761 402.159 90.0814 402.373 89.892 402.551C89.7064 402.729 89.483 402.818 89.2216 402.818ZM92.0866 413V404.273H93.3821V405.591H93.473C93.6321 405.159 93.92 404.809 94.3366 404.54C94.7533 404.271 95.223 404.136 95.7457 404.136C95.8442 404.136 95.9673 404.138 96.1151 404.142C96.2628 404.146 96.3745 404.152 96.4503 404.159V405.523C96.4048 405.511 96.3007 405.494 96.1378 405.472C95.9787 405.445 95.8101 405.432 95.6321 405.432C95.2079 405.432 94.8291 405.521 94.4957 405.699C94.1662 405.873 93.9048 406.116 93.7116 406.426C93.5223 406.733 93.4276 407.083 93.4276 407.477V413H92.0866ZM97.7898 413V404.273H99.0852V405.636H99.1989C99.3807 405.17 99.6742 404.809 100.08 404.551C100.485 404.29 100.972 404.159 101.54 404.159C102.116 404.159 102.595 404.29 102.977 404.551C103.364 404.809 103.665 405.17 103.881 405.636H103.972C104.195 405.186 104.53 404.828 104.977 404.562C105.424 404.294 105.96 404.159 106.585 404.159C107.366 404.159 108.004 404.403 108.5 404.892C108.996 405.377 109.244 406.133 109.244 407.159V413H107.903V407.159C107.903 406.515 107.727 406.055 107.375 405.778C107.023 405.502 106.608 405.364 106.131 405.364C105.517 405.364 105.042 405.549 104.705 405.92C104.367 406.288 104.199 406.754 104.199 407.318V413H102.835V407.023C102.835 406.527 102.674 406.127 102.352 405.824C102.03 405.517 101.616 405.364 101.108 405.364C100.759 405.364 100.434 405.456 100.131 405.642C99.8314 405.828 99.589 406.085 99.4034 406.415C99.2216 406.741 99.1307 407.117 99.1307 407.545V413H97.7898ZM115.696 416.273V404.273H116.991V405.659H117.151C117.249 405.508 117.385 405.314 117.56 405.08C117.738 404.841 117.991 404.629 118.321 404.443C118.654 404.254 119.105 404.159 119.673 404.159C120.408 404.159 121.056 404.343 121.616 404.71C122.177 405.078 122.615 405.598 122.929 406.273C123.243 406.947 123.401 407.742 123.401 408.659C123.401 409.583 123.243 410.384 122.929 411.062C122.615 411.737 122.179 412.259 121.622 412.631C121.065 412.998 120.423 413.182 119.696 413.182C119.135 413.182 118.687 413.089 118.349 412.903C118.012 412.714 117.753 412.5 117.571 412.261C117.389 412.019 117.249 411.818 117.151 411.659H117.037V416.273H115.696ZM117.014 408.636C117.014 409.295 117.111 409.877 117.304 410.381C117.497 410.881 117.779 411.273 118.151 411.557C118.522 411.837 118.976 411.977 119.514 411.977C120.075 411.977 120.543 411.83 120.918 411.534C121.296 411.235 121.58 410.833 121.77 410.33C121.963 409.822 122.06 409.258 122.06 408.636C122.06 408.023 121.965 407.47 121.776 406.977C121.59 406.481 121.308 406.089 120.929 405.801C120.554 405.509 120.082 405.364 119.514 405.364C118.969 405.364 118.51 405.502 118.139 405.778C117.768 406.051 117.488 406.434 117.298 406.926C117.109 407.415 117.014 407.985 117.014 408.636ZM127.764 413.205C127.211 413.205 126.709 413.1 126.259 412.892C125.808 412.68 125.45 412.375 125.185 411.977C124.92 411.576 124.787 411.091 124.787 410.523C124.787 410.023 124.885 409.617 125.082 409.307C125.279 408.992 125.543 408.746 125.872 408.568C126.202 408.39 126.565 408.258 126.963 408.17C127.365 408.08 127.768 408.008 128.173 407.955C128.704 407.886 129.134 407.835 129.463 407.801C129.796 407.763 130.039 407.701 130.19 407.614C130.346 407.527 130.423 407.375 130.423 407.159V407.114C130.423 406.553 130.27 406.117 129.963 405.807C129.66 405.496 129.2 405.341 128.582 405.341C127.942 405.341 127.44 405.481 127.077 405.761C126.713 406.042 126.457 406.341 126.31 406.659L125.037 406.205C125.264 405.674 125.567 405.261 125.946 404.966C126.329 404.667 126.745 404.458 127.196 404.341C127.651 404.22 128.098 404.159 128.537 404.159C128.817 404.159 129.139 404.193 129.503 404.261C129.87 404.326 130.224 404.46 130.565 404.665C130.91 404.869 131.196 405.178 131.423 405.591C131.651 406.004 131.764 406.557 131.764 407.25V413H130.423V411.818H130.355C130.264 412.008 130.113 412.21 129.901 412.426C129.688 412.642 129.406 412.826 129.054 412.977C128.702 413.129 128.272 413.205 127.764 413.205ZM127.969 412C128.499 412 128.946 411.896 129.31 411.688C129.677 411.479 129.954 411.21 130.139 410.881C130.329 410.551 130.423 410.205 130.423 409.841V408.614C130.366 408.682 130.241 408.744 130.048 408.801C129.859 408.854 129.639 408.902 129.389 408.943C129.143 408.981 128.902 409.015 128.668 409.045C128.437 409.072 128.249 409.095 128.105 409.114C127.757 409.159 127.431 409.233 127.128 409.335C126.829 409.434 126.586 409.583 126.401 409.784C126.219 409.981 126.128 410.25 126.128 410.591C126.128 411.057 126.3 411.409 126.645 411.648C126.993 411.883 127.435 412 127.969 412ZM140.143 406.227L138.939 406.568C138.863 406.367 138.751 406.172 138.604 405.983C138.46 405.79 138.263 405.631 138.013 405.506C137.763 405.381 137.443 405.318 137.053 405.318C136.518 405.318 136.073 405.441 135.717 405.688C135.365 405.93 135.189 406.239 135.189 406.614C135.189 406.947 135.31 407.21 135.553 407.403C135.795 407.597 136.174 407.758 136.689 407.886L137.984 408.205C138.765 408.394 139.346 408.684 139.729 409.074C140.111 409.46 140.303 409.958 140.303 410.568C140.303 411.068 140.159 411.515 139.871 411.909C139.587 412.303 139.189 412.614 138.678 412.841C138.166 413.068 137.571 413.182 136.893 413.182C136.003 413.182 135.267 412.989 134.683 412.602C134.1 412.216 133.731 411.652 133.575 410.909L134.848 410.591C134.969 411.061 135.198 411.413 135.536 411.648C135.876 411.883 136.321 412 136.871 412C137.496 412 137.992 411.867 138.359 411.602C138.731 411.333 138.916 411.011 138.916 410.636C138.916 410.333 138.81 410.08 138.598 409.875C138.386 409.667 138.06 409.511 137.621 409.409L136.166 409.068C135.367 408.879 134.78 408.585 134.405 408.188C134.034 407.786 133.848 407.284 133.848 406.682C133.848 406.189 133.986 405.754 134.263 405.375C134.543 404.996 134.924 404.699 135.405 404.483C135.89 404.267 136.439 404.159 137.053 404.159C137.916 404.159 138.594 404.348 139.087 404.727C139.583 405.106 139.935 405.606 140.143 406.227ZM148.253 406.227L147.048 406.568C146.973 406.367 146.861 406.172 146.713 405.983C146.569 405.79 146.372 405.631 146.122 405.506C145.872 405.381 145.552 405.318 145.162 405.318C144.628 405.318 144.183 405.441 143.827 405.688C143.474 405.93 143.298 406.239 143.298 406.614C143.298 406.947 143.42 407.21 143.662 407.403C143.904 407.597 144.283 407.758 144.798 407.886L146.094 408.205C146.874 408.394 147.455 408.684 147.838 409.074C148.221 409.46 148.412 409.958 148.412 410.568C148.412 411.068 148.268 411.515 147.98 411.909C147.696 412.303 147.298 412.614 146.787 412.841C146.276 413.068 145.681 413.182 145.003 413.182C144.113 413.182 143.376 412.989 142.793 412.602C142.209 412.216 141.84 411.652 141.685 410.909L142.957 410.591C143.079 411.061 143.308 411.413 143.645 411.648C143.986 411.883 144.431 412 144.98 412C145.605 412 146.101 411.867 146.469 411.602C146.84 411.333 147.026 411.011 147.026 410.636C147.026 410.333 146.92 410.08 146.707 409.875C146.495 409.667 146.17 409.511 145.73 409.409L144.276 409.068C143.476 408.879 142.889 408.585 142.514 408.188C142.143 407.786 141.957 407.284 141.957 406.682C141.957 406.189 142.096 405.754 142.372 405.375C142.652 404.996 143.033 404.699 143.514 404.483C143.999 404.267 144.548 404.159 145.162 404.159C146.026 404.159 146.704 404.348 147.196 404.727C147.692 405.106 148.045 405.606 148.253 406.227ZM152.158 413L149.499 404.273H150.908L152.794 410.955H152.885L154.749 404.273H156.18L158.021 410.932H158.112L159.999 404.273H161.408L158.749 413H157.43L155.521 406.295H155.385L153.476 413H152.158ZM166.179 413.182C165.391 413.182 164.7 412.994 164.105 412.619C163.514 412.244 163.052 411.72 162.719 411.045C162.389 410.371 162.224 409.583 162.224 408.682C162.224 407.773 162.389 406.979 162.719 406.301C163.052 405.623 163.514 405.097 164.105 404.722C164.7 404.347 165.391 404.159 166.179 404.159C166.967 404.159 167.656 404.347 168.247 404.722C168.842 405.097 169.304 405.623 169.634 406.301C169.967 406.979 170.134 407.773 170.134 408.682C170.134 409.583 169.967 410.371 169.634 411.045C169.304 411.72 168.842 412.244 168.247 412.619C167.656 412.994 166.967 413.182 166.179 413.182ZM166.179 411.977C166.777 411.977 167.27 411.824 167.656 411.517C168.043 411.21 168.329 410.807 168.514 410.307C168.7 409.807 168.793 409.265 168.793 408.682C168.793 408.098 168.7 407.555 168.514 407.051C168.329 406.547 168.043 406.14 167.656 405.83C167.27 405.519 166.777 405.364 166.179 405.364C165.58 405.364 165.088 405.519 164.702 405.83C164.315 406.14 164.029 406.547 163.844 407.051C163.658 407.555 163.565 408.098 163.565 408.682C163.565 409.265 163.658 409.807 163.844 410.307C164.029 410.807 164.315 411.21 164.702 411.517C165.088 411.824 165.58 411.977 166.179 411.977ZM171.93 413V404.273H173.226V405.591H173.317C173.476 405.159 173.764 404.809 174.18 404.54C174.597 404.271 175.067 404.136 175.589 404.136C175.688 404.136 175.811 404.138 175.959 404.142C176.107 404.146 176.218 404.152 176.294 404.159V405.523C176.249 405.511 176.144 405.494 175.982 405.472C175.822 405.445 175.654 405.432 175.476 405.432C175.052 405.432 174.673 405.521 174.339 405.699C174.01 405.873 173.749 406.116 173.555 406.426C173.366 406.733 173.271 407.083 173.271 407.477V413H171.93ZM180.663 413.182C179.936 413.182 179.294 412.998 178.737 412.631C178.18 412.259 177.745 411.737 177.43 411.062C177.116 410.384 176.959 409.583 176.959 408.659C176.959 407.742 177.116 406.947 177.43 406.273C177.745 405.598 178.182 405.078 178.743 404.71C179.304 404.343 179.951 404.159 180.686 404.159C181.254 404.159 181.703 404.254 182.033 404.443C182.366 404.629 182.62 404.841 182.794 405.08C182.972 405.314 183.11 405.508 183.209 405.659H183.322V401.364H184.663V413H183.368V411.659H183.209C183.11 411.818 182.97 412.019 182.788 412.261C182.607 412.5 182.347 412.714 182.01 412.903C181.673 413.089 181.224 413.182 180.663 413.182ZM180.845 411.977C181.383 411.977 181.838 411.837 182.209 411.557C182.58 411.273 182.862 410.881 183.055 410.381C183.249 409.877 183.345 409.295 183.345 408.636C183.345 407.985 183.25 407.415 183.061 406.926C182.872 406.434 182.591 406.051 182.22 405.778C181.849 405.502 181.391 405.364 180.845 405.364C180.277 405.364 179.804 405.509 179.425 405.801C179.05 406.089 178.768 406.481 178.578 406.977C178.393 407.47 178.3 408.023 178.3 408.636C178.3 409.258 178.394 409.822 178.584 410.33C178.777 410.833 179.061 411.235 179.436 411.534C179.815 411.83 180.285 411.977 180.845 411.977Z" fill="black"/>
<path d="M52 428C52 422.477 56.4772 418 62 418H476C481.523 418 486 422.477 486 428V438C486 443.523 481.523 448 476 448H62C56.4772 448 52 443.523 52 438V428Z" fill="#F0FCF6"/>
<path d="M53.4091 326V314.364H57.3409C58.2538 314.364 59 314.528 59.5795 314.858C60.1629 315.184 60.5947 315.625 60.875 316.182C61.1553 316.739 61.2955 317.36 61.2955 318.045C61.2955 318.731 61.1553 319.354 60.875 319.915C60.5985 320.475 60.1705 320.922 59.5909 321.256C59.0114 321.585 58.2689 321.75 57.3636 321.75H54.5455V320.5H57.3182C57.9432 320.5 58.4451 320.392 58.8239 320.176C59.2027 319.96 59.4773 319.669 59.6477 319.301C59.822 318.93 59.9091 318.511 59.9091 318.045C59.9091 317.58 59.822 317.163 59.6477 316.795C59.4773 316.428 59.2008 316.14 58.8182 315.932C58.4356 315.72 57.928 315.614 57.2955 315.614H54.8182V326H53.4091ZM65.7017 326.205C65.1487 326.205 64.6468 326.1 64.196 325.892C63.7453 325.68 63.3873 325.375 63.1222 324.977C62.857 324.576 62.7244 324.091 62.7244 323.523C62.7244 323.023 62.8229 322.617 63.0199 322.307C63.2169 321.992 63.4801 321.746 63.8097 321.568C64.1392 321.39 64.5028 321.258 64.9006 321.17C65.3021 321.08 65.7055 321.008 66.1108 320.955C66.6411 320.886 67.071 320.835 67.4006 320.801C67.7339 320.763 67.9763 320.701 68.1278 320.614C68.2831 320.527 68.3608 320.375 68.3608 320.159V320.114C68.3608 319.553 68.2074 319.117 67.9006 318.807C67.5975 318.496 67.1373 318.341 66.5199 318.341C65.8797 318.341 65.3778 318.481 65.0142 318.761C64.6506 319.042 64.3949 319.341 64.2472 319.659L62.9744 319.205C63.2017 318.674 63.5047 318.261 63.8835 317.966C64.2661 317.667 64.6828 317.458 65.1335 317.341C65.5881 317.22 66.035 317.159 66.4744 317.159C66.7547 317.159 67.0767 317.193 67.4403 317.261C67.8078 317.326 68.1619 317.46 68.5028 317.665C68.8475 317.869 69.1335 318.178 69.3608 318.591C69.5881 319.004 69.7017 319.557 69.7017 320.25V326H68.3608V324.818H68.2926C68.2017 325.008 68.0502 325.21 67.8381 325.426C67.6259 325.642 67.3438 325.826 66.9915 325.977C66.6392 326.129 66.2093 326.205 65.7017 326.205ZM65.9062 325C66.4366 325 66.8835 324.896 67.2472 324.688C67.6146 324.479 67.8911 324.21 68.0767 323.881C68.2661 323.551 68.3608 323.205 68.3608 322.841V321.614C68.304 321.682 68.179 321.744 67.9858 321.801C67.7964 321.854 67.5767 321.902 67.3267 321.943C67.0805 321.981 66.84 322.015 66.6051 322.045C66.3741 322.072 66.1866 322.095 66.0426 322.114C65.6941 322.159 65.3684 322.233 65.0653 322.335C64.7661 322.434 64.5237 322.583 64.3381 322.784C64.1563 322.981 64.0653 323.25 64.0653 323.591C64.0653 324.057 64.2377 324.409 64.5824 324.648C64.9309 324.883 65.3722 325 65.9062 325ZM78.081 319.227L76.8764 319.568C76.8007 319.367 76.6889 319.172 76.5412 318.983C76.3973 318.79 76.2003 318.631 75.9503 318.506C75.7003 318.381 75.3802 318.318 74.9901 318.318C74.456 318.318 74.0109 318.441 73.6548 318.688C73.3026 318.93 73.1264 319.239 73.1264 319.614C73.1264 319.947 73.2476 320.21 73.4901 320.403C73.7325 320.597 74.1113 320.758 74.6264 320.886L75.9219 321.205C76.7022 321.394 77.2836 321.684 77.6662 322.074C78.0488 322.46 78.2401 322.958 78.2401 323.568C78.2401 324.068 78.0961 324.515 77.8082 324.909C77.5241 325.303 77.1264 325.614 76.6151 325.841C76.1037 326.068 75.509 326.182 74.831 326.182C73.9408 326.182 73.2041 325.989 72.6207 325.602C72.0374 325.216 71.6681 324.652 71.5128 323.909L72.7855 323.591C72.9067 324.061 73.1359 324.413 73.473 324.648C73.8139 324.883 74.259 325 74.8082 325C75.4332 325 75.9295 324.867 76.2969 324.602C76.6681 324.333 76.8537 324.011 76.8537 323.636C76.8537 323.333 76.7476 323.08 76.5355 322.875C76.3234 322.667 75.9976 322.511 75.5582 322.409L74.1037 322.068C73.3045 321.879 72.7173 321.585 72.3423 321.188C71.9711 320.786 71.7855 320.284 71.7855 319.682C71.7855 319.189 71.9238 318.754 72.2003 318.375C72.4806 317.996 72.8613 317.699 73.3423 317.483C73.8272 317.267 74.3764 317.159 74.9901 317.159C75.8537 317.159 76.5317 317.348 77.0241 317.727C77.5204 318.106 77.8726 318.606 78.081 319.227ZM86.1903 319.227L84.9858 319.568C84.91 319.367 84.7983 319.172 84.6506 318.983C84.5066 318.79 84.3097 318.631 84.0597 318.506C83.8097 318.381 83.4896 318.318 83.0994 318.318C82.5653 318.318 82.1203 318.441 81.7642 318.688C81.4119 318.93 81.2358 319.239 81.2358 319.614C81.2358 319.947 81.357 320.21 81.5994 320.403C81.8419 320.597 82.2206 320.758 82.7358 320.886L84.0312 321.205C84.8116 321.394 85.393 321.684 85.7756 322.074C86.1581 322.46 86.3494 322.958 86.3494 323.568C86.3494 324.068 86.2055 324.515 85.9176 324.909C85.6335 325.303 85.2358 325.614 84.7244 325.841C84.2131 326.068 83.6184 326.182 82.9403 326.182C82.0502 326.182 81.3134 325.989 80.7301 325.602C80.1468 325.216 79.7775 324.652 79.6222 323.909L80.8949 323.591C81.0161 324.061 81.2453 324.413 81.5824 324.648C81.9233 324.883 82.3684 325 82.9176 325C83.5426 325 84.0388 324.867 84.4062 324.602C84.7775 324.333 84.9631 324.011 84.9631 323.636C84.9631 323.333 84.857 323.08 84.6449 322.875C84.4328 322.667 84.107 322.511 83.6676 322.409L82.2131 322.068C81.4138 321.879 80.8267 321.585 80.4517 321.188C80.0805 320.786 79.8949 320.284 79.8949 319.682C79.8949 319.189 80.0331 318.754 80.3097 318.375C80.59 317.996 80.9706 317.699 81.4517 317.483C81.9366 317.267 82.4858 317.159 83.0994 317.159C83.9631 317.159 84.6411 317.348 85.1335 317.727C85.6297 318.106 85.982 318.606 86.1903 319.227ZM90.0952 326L87.4361 317.273H88.8452L90.7315 323.955H90.8224L92.6861 317.273H94.1179L95.9588 323.932H96.0497L97.9361 317.273H99.3452L96.6861 326H95.3679L93.4588 319.295H93.3224L91.4134 326H90.0952ZM104.116 326.182C103.329 326.182 102.637 325.994 102.043 325.619C101.452 325.244 100.99 324.72 100.656 324.045C100.327 323.371 100.162 322.583 100.162 321.682C100.162 320.773 100.327 319.979 100.656 319.301C100.99 318.623 101.452 318.097 102.043 317.722C102.637 317.347 103.329 317.159 104.116 317.159C104.904 317.159 105.594 317.347 106.185 317.722C106.779 318.097 107.241 318.623 107.571 319.301C107.904 319.979 108.071 320.773 108.071 321.682C108.071 322.583 107.904 323.371 107.571 324.045C107.241 324.72 106.779 325.244 106.185 325.619C105.594 325.994 104.904 326.182 104.116 326.182ZM104.116 324.977C104.715 324.977 105.207 324.824 105.594 324.517C105.98 324.21 106.266 323.807 106.452 323.307C106.637 322.807 106.73 322.265 106.73 321.682C106.73 321.098 106.637 320.555 106.452 320.051C106.266 319.547 105.98 319.14 105.594 318.83C105.207 318.519 104.715 318.364 104.116 318.364C103.518 318.364 103.026 318.519 102.639 318.83C102.253 319.14 101.967 319.547 101.781 320.051C101.596 320.555 101.503 321.098 101.503 321.682C101.503 322.265 101.596 322.807 101.781 323.307C101.967 323.807 102.253 324.21 102.639 324.517C103.026 324.824 103.518 324.977 104.116 324.977ZM109.868 326V317.273H111.163V318.591H111.254C111.413 318.159 111.701 317.809 112.118 317.54C112.535 317.271 113.004 317.136 113.527 317.136C113.625 317.136 113.749 317.138 113.896 317.142C114.044 317.146 114.156 317.152 114.232 317.159V318.523C114.186 318.511 114.082 318.494 113.919 318.472C113.76 318.445 113.591 318.432 113.413 318.432C112.989 318.432 112.61 318.521 112.277 318.699C111.947 318.873 111.686 319.116 111.493 319.426C111.304 319.733 111.209 320.083 111.209 320.477V326H109.868ZM118.601 326.182C117.874 326.182 117.232 325.998 116.675 325.631C116.118 325.259 115.682 324.737 115.368 324.062C115.054 323.384 114.896 322.583 114.896 321.659C114.896 320.742 115.054 319.947 115.368 319.273C115.682 318.598 116.12 318.078 116.68 317.71C117.241 317.343 117.889 317.159 118.624 317.159C119.192 317.159 119.641 317.254 119.97 317.443C120.304 317.629 120.557 317.841 120.732 318.08C120.91 318.314 121.048 318.508 121.146 318.659H121.26V314.364H122.601V326H121.305V324.659H121.146C121.048 324.818 120.908 325.019 120.726 325.261C120.544 325.5 120.285 325.714 119.947 325.903C119.61 326.089 119.161 326.182 118.601 326.182ZM118.783 324.977C119.321 324.977 119.775 324.837 120.146 324.557C120.518 324.273 120.8 323.881 120.993 323.381C121.186 322.877 121.283 322.295 121.283 321.636C121.283 320.985 121.188 320.415 120.999 319.926C120.809 319.434 120.529 319.051 120.158 318.778C119.786 318.502 119.328 318.364 118.783 318.364C118.214 318.364 117.741 318.509 117.362 318.801C116.987 319.089 116.705 319.481 116.516 319.977C116.33 320.47 116.237 321.023 116.237 321.636C116.237 322.258 116.332 322.822 116.521 323.33C116.714 323.833 116.999 324.235 117.374 324.534C117.752 324.83 118.222 324.977 118.783 324.977Z" fill="black"/>
<path d="M52 341C52 335.477 56.4772 331 62 331H476C481.523 331 486 335.477 486 341V351C486 356.523 481.523 361 476 361H62C56.4772 361 52 356.523 52 351V341Z" fill="#F0FCF6"/>
<path d="M292 167C292 161.477 296.477 157 302 157H471C476.523 157 481 161.477 481 167V177C481 182.523 476.523 187 471 187H302C296.477 187 292 182.523 292 177V167Z" fill="#F0FCF6"/>
<path d="M293.409 152V140.364H294.818V150.75H300.227V152H293.409ZM304.545 152.205C303.992 152.205 303.491 152.1 303.04 151.892C302.589 151.68 302.231 151.375 301.966 150.977C301.701 150.576 301.568 150.091 301.568 149.523C301.568 149.023 301.667 148.617 301.864 148.307C302.061 147.992 302.324 147.746 302.653 147.568C302.983 147.39 303.347 147.258 303.744 147.17C304.146 147.08 304.549 147.008 304.955 146.955C305.485 146.886 305.915 146.835 306.244 146.801C306.578 146.763 306.82 146.701 306.972 146.614C307.127 146.527 307.205 146.375 307.205 146.159V146.114C307.205 145.553 307.051 145.117 306.744 144.807C306.441 144.496 305.981 144.341 305.364 144.341C304.723 144.341 304.222 144.481 303.858 144.761C303.494 145.042 303.239 145.341 303.091 145.659L301.818 145.205C302.045 144.674 302.348 144.261 302.727 143.966C303.11 143.667 303.527 143.458 303.977 143.341C304.432 143.22 304.879 143.159 305.318 143.159C305.598 143.159 305.92 143.193 306.284 143.261C306.652 143.326 307.006 143.46 307.347 143.665C307.691 143.869 307.977 144.178 308.205 144.591C308.432 145.004 308.545 145.557 308.545 146.25V152H307.205V150.818H307.136C307.045 151.008 306.894 151.21 306.682 151.426C306.47 151.642 306.188 151.826 305.835 151.977C305.483 152.129 305.053 152.205 304.545 152.205ZM304.75 151C305.28 151 305.727 150.896 306.091 150.688C306.458 150.479 306.735 150.21 306.92 149.881C307.11 149.551 307.205 149.205 307.205 148.841V147.614C307.148 147.682 307.023 147.744 306.83 147.801C306.64 147.854 306.42 147.902 306.17 147.943C305.924 147.981 305.684 148.015 305.449 148.045C305.218 148.072 305.03 148.095 304.886 148.114C304.538 148.159 304.212 148.233 303.909 148.335C303.61 148.434 303.367 148.583 303.182 148.784C303 148.981 302.909 149.25 302.909 149.591C302.909 150.057 303.081 150.409 303.426 150.648C303.775 150.883 304.216 151 304.75 151ZM316.925 145.227L315.72 145.568C315.644 145.367 315.533 145.172 315.385 144.983C315.241 144.79 315.044 144.631 314.794 144.506C314.544 144.381 314.224 144.318 313.834 144.318C313.3 144.318 312.855 144.441 312.499 144.688C312.146 144.93 311.97 145.239 311.97 145.614C311.97 145.947 312.091 146.21 312.334 146.403C312.576 146.597 312.955 146.758 313.47 146.886L314.766 147.205C315.546 147.394 316.127 147.684 316.51 148.074C316.893 148.46 317.084 148.958 317.084 149.568C317.084 150.068 316.94 150.515 316.652 150.909C316.368 151.303 315.97 151.614 315.459 151.841C314.947 152.068 314.353 152.182 313.675 152.182C312.785 152.182 312.048 151.989 311.464 151.602C310.881 151.216 310.512 150.652 310.357 149.909L311.629 149.591C311.75 150.061 311.98 150.413 312.317 150.648C312.658 150.883 313.103 151 313.652 151C314.277 151 314.773 150.867 315.141 150.602C315.512 150.333 315.697 150.011 315.697 149.636C315.697 149.333 315.591 149.08 315.379 148.875C315.167 148.667 314.841 148.511 314.402 148.409L312.947 148.068C312.148 147.879 311.561 147.585 311.186 147.188C310.815 146.786 310.629 146.284 310.629 145.682C310.629 145.189 310.768 144.754 311.044 144.375C311.324 143.996 311.705 143.699 312.186 143.483C312.671 143.267 313.22 143.159 313.834 143.159C314.697 143.159 315.375 143.348 315.868 143.727C316.364 144.106 316.716 144.606 316.925 145.227ZM322.648 143.273V144.409H318.125V143.273H322.648ZM319.443 141.182H320.784V149.5C320.784 149.879 320.839 150.163 320.949 150.352C321.063 150.538 321.206 150.663 321.381 150.727C321.559 150.788 321.746 150.818 321.943 150.818C322.091 150.818 322.212 150.811 322.307 150.795C322.402 150.777 322.477 150.761 322.534 150.75L322.807 151.955C322.716 151.989 322.589 152.023 322.426 152.057C322.263 152.095 322.057 152.114 321.807 152.114C321.428 152.114 321.057 152.032 320.693 151.869C320.333 151.706 320.034 151.458 319.795 151.125C319.561 150.792 319.443 150.371 319.443 149.864V141.182ZM338.074 140.364V152H336.71L330.369 142.864H330.256V152H328.847V140.364H330.21L336.574 149.523H336.688V140.364H338.074ZM343.03 152.205C342.477 152.205 341.975 152.1 341.524 151.892C341.073 151.68 340.715 151.375 340.45 150.977C340.185 150.576 340.053 150.091 340.053 149.523C340.053 149.023 340.151 148.617 340.348 148.307C340.545 147.992 340.808 147.746 341.138 147.568C341.467 147.39 341.831 147.258 342.229 147.17C342.63 147.08 343.034 147.008 343.439 146.955C343.969 146.886 344.399 146.835 344.729 146.801C345.062 146.763 345.304 146.701 345.456 146.614C345.611 146.527 345.689 146.375 345.689 146.159V146.114C345.689 145.553 345.536 145.117 345.229 144.807C344.926 144.496 344.465 144.341 343.848 144.341C343.208 144.341 342.706 144.481 342.342 144.761C341.979 145.042 341.723 145.341 341.575 145.659L340.303 145.205C340.53 144.674 340.833 144.261 341.212 143.966C341.594 143.667 342.011 143.458 342.462 143.341C342.916 143.22 343.363 143.159 343.803 143.159C344.083 143.159 344.405 143.193 344.768 143.261C345.136 143.326 345.49 143.46 345.831 143.665C346.176 143.869 346.462 144.178 346.689 144.591C346.916 145.004 347.03 145.557 347.03 146.25V152H345.689V150.818H345.621C345.53 151.008 345.378 151.21 345.166 151.426C344.954 151.642 344.672 151.826 344.32 151.977C343.967 152.129 343.537 152.205 343.03 152.205ZM343.234 151C343.765 151 344.212 150.896 344.575 150.688C344.943 150.479 345.219 150.21 345.405 149.881C345.594 149.551 345.689 149.205 345.689 148.841V147.614C345.632 147.682 345.507 147.744 345.314 147.801C345.125 147.854 344.905 147.902 344.655 147.943C344.409 147.981 344.168 148.015 343.933 148.045C343.702 148.072 343.515 148.095 343.371 148.114C343.022 148.159 342.696 148.233 342.393 148.335C342.094 148.434 341.852 148.583 341.666 148.784C341.484 148.981 341.393 149.25 341.393 149.591C341.393 150.057 341.566 150.409 341.911 150.648C342.259 150.883 342.7 151 343.234 151ZM349.227 152V143.273H350.523V144.636H350.636C350.818 144.17 351.112 143.809 351.517 143.551C351.922 143.29 352.409 143.159 352.977 143.159C353.553 143.159 354.032 143.29 354.415 143.551C354.801 143.809 355.102 144.17 355.318 144.636H355.409C355.633 144.186 355.968 143.828 356.415 143.562C356.862 143.294 357.398 143.159 358.023 143.159C358.803 143.159 359.441 143.403 359.938 143.892C360.434 144.377 360.682 145.133 360.682 146.159V152H359.341V146.159C359.341 145.515 359.165 145.055 358.812 144.778C358.46 144.502 358.045 144.364 357.568 144.364C356.955 144.364 356.479 144.549 356.142 144.92C355.805 145.288 355.636 145.754 355.636 146.318V152H354.273V146.023C354.273 145.527 354.112 145.127 353.79 144.824C353.468 144.517 353.053 144.364 352.545 144.364C352.197 144.364 351.871 144.456 351.568 144.642C351.269 144.828 351.027 145.085 350.841 145.415C350.659 145.741 350.568 146.117 350.568 146.545V152H349.227ZM366.543 152.182C365.702 152.182 364.976 151.996 364.366 151.625C363.76 151.25 363.293 150.727 362.963 150.057C362.637 149.383 362.474 148.598 362.474 147.705C362.474 146.811 362.637 146.023 362.963 145.341C363.293 144.655 363.751 144.121 364.338 143.739C364.929 143.352 365.618 143.159 366.406 143.159C366.861 143.159 367.31 143.235 367.753 143.386C368.196 143.538 368.599 143.784 368.963 144.125C369.327 144.462 369.616 144.909 369.832 145.466C370.048 146.023 370.156 146.708 370.156 147.523V148.091H363.429V146.932H368.793C368.793 146.439 368.694 146 368.497 145.614C368.304 145.227 368.027 144.922 367.668 144.699C367.312 144.475 366.891 144.364 366.406 144.364C365.872 144.364 365.41 144.496 365.02 144.761C364.634 145.023 364.336 145.364 364.128 145.784C363.92 146.205 363.815 146.655 363.815 147.136V147.909C363.815 148.568 363.929 149.127 364.156 149.585C364.387 150.04 364.707 150.386 365.116 150.625C365.526 150.86 366.001 150.977 366.543 150.977C366.895 150.977 367.213 150.928 367.497 150.83C367.785 150.727 368.033 150.576 368.241 150.375C368.45 150.17 368.611 149.917 368.724 149.614L370.02 149.977C369.884 150.417 369.654 150.803 369.332 151.136C369.01 151.466 368.613 151.723 368.139 151.909C367.666 152.091 367.134 152.182 366.543 152.182Z" fill="black"/>
<rect x="175" y="478" width="189" height="45" rx="10" fill="#29B362"/>
<path d="M241.589 497.091C241.504 496.371 241.158 495.812 240.552 495.415C239.946 495.017 239.203 494.818 238.322 494.818C237.678 494.818 237.115 494.922 236.632 495.131C236.153 495.339 235.779 495.625 235.509 495.99C235.244 496.355 235.112 496.769 235.112 497.233C235.112 497.621 235.204 497.955 235.389 498.234C235.578 498.509 235.82 498.739 236.113 498.923C236.407 499.103 236.714 499.252 237.036 499.371C237.358 499.484 237.654 499.577 237.924 499.648L239.401 500.045C239.78 500.145 240.202 500.282 240.666 500.457C241.134 500.633 241.582 500.872 242.008 501.175C242.439 501.473 242.794 501.857 243.073 502.325C243.353 502.794 243.492 503.369 243.492 504.051C243.492 504.837 243.286 505.547 242.874 506.182C242.467 506.816 241.871 507.321 241.085 507.695C240.303 508.069 239.354 508.256 238.237 508.256C237.195 508.256 236.293 508.088 235.531 507.751C234.773 507.415 234.177 506.946 233.741 506.345C233.31 505.744 233.066 505.045 233.009 504.25H234.828C234.875 504.799 235.06 505.254 235.382 505.614C235.708 505.969 236.12 506.234 236.617 506.409C237.119 506.58 237.659 506.665 238.237 506.665C238.909 506.665 239.513 506.556 240.048 506.338C240.583 506.116 241.007 505.808 241.319 505.415C241.632 505.017 241.788 504.553 241.788 504.023C241.788 503.54 241.653 503.147 241.383 502.844C241.113 502.541 240.758 502.295 240.318 502.105C239.877 501.916 239.401 501.75 238.89 501.608L237.1 501.097C235.964 500.77 235.064 500.304 234.401 499.697C233.739 499.091 233.407 498.298 233.407 497.318C233.407 496.504 233.627 495.794 234.068 495.188C234.513 494.577 235.109 494.103 235.857 493.767C236.61 493.426 237.451 493.256 238.379 493.256C239.316 493.256 240.15 493.424 240.879 493.76C241.608 494.091 242.186 494.546 242.612 495.124C243.043 495.701 243.27 496.357 243.294 497.091H241.589ZM255.684 493.455H257.445V503.085C257.445 504.08 257.211 504.967 256.742 505.749C256.278 506.525 255.622 507.138 254.775 507.588C253.927 508.033 252.933 508.256 251.792 508.256C250.651 508.256 249.656 508.033 248.809 507.588C247.961 507.138 247.303 506.525 246.834 505.749C246.37 504.967 246.138 504.08 246.138 503.085V493.455H247.9V502.943C247.9 503.653 248.056 504.286 248.368 504.839C248.681 505.389 249.126 505.822 249.704 506.139C250.286 506.452 250.982 506.608 251.792 506.608C252.601 506.608 253.297 506.452 253.88 506.139C254.462 505.822 254.907 505.389 255.215 504.839C255.528 504.286 255.684 503.653 255.684 502.943V493.455ZM260.713 508V493.455H265.798C266.811 493.455 267.647 493.63 268.305 493.98C268.963 494.326 269.453 494.792 269.775 495.379C270.097 495.962 270.258 496.608 270.258 497.318C270.258 497.943 270.147 498.459 269.924 498.866C269.706 499.274 269.418 499.596 269.058 499.832C268.703 500.069 268.317 500.244 267.9 500.358V500.5C268.345 500.528 268.793 500.685 269.242 500.969C269.692 501.253 270.069 501.66 270.372 502.19C270.675 502.721 270.826 503.369 270.826 504.136C270.826 504.866 270.66 505.521 270.329 506.104C269.998 506.686 269.474 507.148 268.759 507.489C268.044 507.83 267.114 508 265.968 508H260.713ZM262.474 506.438H265.968C267.119 506.438 267.936 506.215 268.419 505.77C268.906 505.32 269.15 504.776 269.15 504.136C269.15 503.644 269.025 503.189 268.774 502.773C268.523 502.351 268.165 502.015 267.701 501.764C267.237 501.509 266.688 501.381 266.053 501.381H262.474V506.438ZM262.474 499.847H265.741C266.271 499.847 266.749 499.742 267.176 499.534C267.606 499.326 267.947 499.032 268.198 498.653C268.454 498.275 268.582 497.83 268.582 497.318C268.582 496.679 268.359 496.137 267.914 495.692C267.469 495.242 266.764 495.017 265.798 495.017H262.474V499.847ZM273.47 493.455H275.573L280.516 505.528H280.686L285.629 493.455H287.732V508H286.084V496.949H285.942L281.396 508H279.806L275.26 496.949H275.118V508H273.47V493.455ZM292.775 493.455V508H291.013V493.455H292.775ZM295.261 495.017V493.455H306.17V495.017H301.596V508H299.835V495.017H295.261Z" fill="black"/>
<path d="M289.2 542V531.818H292.64C293.436 531.818 294.088 531.954 294.599 532.226C295.109 532.494 295.487 532.864 295.732 533.335C295.978 533.805 296.1 534.34 296.1 534.94C296.1 535.54 295.978 536.072 295.732 536.536C295.487 537 295.111 537.365 294.604 537.63C294.097 537.892 293.449 538.023 292.66 538.023H289.876V536.909H292.62C293.164 536.909 293.601 536.83 293.933 536.67C294.267 536.511 294.509 536.286 294.659 535.994C294.811 535.699 294.887 535.348 294.887 534.94C294.887 534.533 294.811 534.176 294.659 533.871C294.506 533.567 294.262 533.331 293.928 533.165C293.593 532.996 293.151 532.912 292.6 532.912H290.433V542H289.2ZM293.992 537.426L296.498 542H295.066L292.6 537.426H293.992ZM300.865 542.159C300.13 542.159 299.495 541.997 298.961 541.672C298.431 541.344 298.022 540.886 297.733 540.3C297.448 539.71 297.306 539.024 297.306 538.241C297.306 537.459 297.448 536.77 297.733 536.173C298.022 535.573 298.423 535.106 298.936 534.771C299.453 534.433 300.057 534.264 300.746 534.264C301.144 534.264 301.537 534.33 301.924 534.463C302.312 534.596 302.665 534.811 302.983 535.109C303.301 535.404 303.555 535.795 303.744 536.283C303.933 536.77 304.027 537.37 304.027 538.082V538.58H298.141V537.565H302.834C302.834 537.134 302.748 536.75 302.576 536.412C302.407 536.074 302.165 535.807 301.85 535.612C301.538 535.416 301.17 535.318 300.746 535.318C300.279 535.318 299.874 535.434 299.533 535.666C299.195 535.895 298.935 536.193 298.752 536.561C298.57 536.929 298.479 537.323 298.479 537.744V538.42C298.479 538.997 298.578 539.486 298.777 539.887C298.98 540.285 299.26 540.588 299.618 540.797C299.975 541.002 300.391 541.105 300.865 541.105C301.174 541.105 301.452 541.062 301.701 540.976C301.953 540.886 302.17 540.754 302.352 540.578C302.534 540.399 302.675 540.177 302.775 539.912L303.908 540.23C303.789 540.615 303.588 540.953 303.306 541.244C303.025 541.533 302.677 541.758 302.262 541.92C301.848 542.08 301.382 542.159 300.865 542.159ZM308.645 545.023C308.078 545.023 307.591 544.95 307.183 544.804C306.775 544.661 306.435 544.473 306.164 544.237C305.895 544.005 305.681 543.757 305.522 543.491L306.457 542.835C306.563 542.974 306.697 543.134 306.86 543.312C307.022 543.495 307.244 543.652 307.526 543.785C307.811 543.921 308.184 543.989 308.645 543.989C309.261 543.989 309.77 543.839 310.171 543.541C310.572 543.243 310.772 542.776 310.772 542.139V540.588H310.673C310.587 540.727 310.464 540.9 310.305 541.105C310.149 541.307 309.924 541.488 309.629 541.647C309.337 541.803 308.943 541.881 308.446 541.881C307.829 541.881 307.276 541.735 306.785 541.443C306.298 541.152 305.912 540.727 305.627 540.17C305.345 539.614 305.204 538.937 305.204 538.142C305.204 537.36 305.342 536.679 305.617 536.099C305.892 535.515 306.275 535.065 306.765 534.746C307.256 534.425 307.823 534.264 308.466 534.264C308.963 534.264 309.357 534.347 309.649 534.513C309.944 534.675 310.169 534.861 310.325 535.07C310.484 535.275 310.607 535.444 310.693 535.577H310.812V534.364H311.946V542.219C311.946 542.875 311.797 543.409 311.498 543.82C311.203 544.234 310.806 544.537 310.305 544.729C309.808 544.925 309.254 545.023 308.645 545.023ZM308.605 540.827C309.075 540.827 309.473 540.719 309.798 540.504C310.123 540.288 310.37 539.978 310.539 539.574C310.708 539.17 310.792 538.686 310.792 538.122C310.792 537.572 310.709 537.086 310.544 536.665C310.378 536.245 310.133 535.915 309.808 535.676C309.483 535.437 309.082 535.318 308.605 535.318C308.108 535.318 307.693 535.444 307.362 535.696C307.034 535.948 306.787 536.286 306.621 536.71C306.459 537.134 306.377 537.605 306.377 538.122C306.377 538.652 306.46 539.121 306.626 539.529C306.795 539.933 307.044 540.252 307.372 540.484C307.703 540.712 308.114 540.827 308.605 540.827ZM313.843 542V534.364H315.017V542H313.843ZM314.44 533.091C314.211 533.091 314.014 533.013 313.848 532.857C313.686 532.701 313.605 532.514 313.605 532.295C313.605 532.077 313.686 531.889 313.848 531.734C314.014 531.578 314.211 531.5 314.44 531.5C314.669 531.5 314.864 531.578 315.027 531.734C315.192 531.889 315.275 532.077 315.275 532.295C315.275 532.514 315.192 532.701 315.027 532.857C314.864 533.013 314.669 533.091 314.44 533.091ZM322.325 536.074L321.271 536.372C321.204 536.196 321.107 536.026 320.977 535.86C320.852 535.691 320.679 535.552 320.46 535.442C320.242 535.333 319.962 535.278 319.62 535.278C319.153 535.278 318.763 535.386 318.452 535.602C318.144 535.814 317.99 536.084 317.99 536.412C317.99 536.704 318.096 536.934 318.308 537.103C318.52 537.272 318.851 537.413 319.302 537.526L320.436 537.804C321.118 537.97 321.627 538.223 321.962 538.565C322.297 538.903 322.464 539.339 322.464 539.872C322.464 540.31 322.338 540.701 322.086 541.045C321.838 541.39 321.49 541.662 321.042 541.861C320.595 542.06 320.074 542.159 319.481 542.159C318.702 542.159 318.057 541.99 317.547 541.652C317.037 541.314 316.713 540.82 316.578 540.17L317.691 539.892C317.797 540.303 317.998 540.611 318.293 540.817C318.591 541.022 318.981 541.125 319.461 541.125C320.008 541.125 320.442 541.009 320.764 540.777C321.088 540.542 321.251 540.26 321.251 539.932C321.251 539.667 321.158 539.445 320.972 539.266C320.787 539.083 320.502 538.947 320.117 538.858L318.845 538.56C318.145 538.394 317.632 538.137 317.303 537.789C316.979 537.438 316.816 536.999 316.816 536.472C316.816 536.041 316.937 535.66 317.179 535.328C317.424 534.997 317.758 534.737 318.178 534.548C318.603 534.359 319.083 534.264 319.62 534.264C320.376 534.264 320.969 534.43 321.4 534.761C321.834 535.093 322.142 535.53 322.325 536.074ZM327.301 534.364V535.358H323.344V534.364H327.301ZM324.497 532.534H325.67V539.812C325.67 540.144 325.719 540.393 325.815 540.558C325.914 540.721 326.04 540.83 326.192 540.886C326.348 540.939 326.512 540.966 326.685 540.966C326.814 540.966 326.92 540.959 327.003 540.946C327.086 540.929 327.152 540.916 327.202 540.906L327.44 541.96C327.361 541.99 327.25 542.02 327.107 542.05C326.965 542.083 326.784 542.099 326.565 542.099C326.234 542.099 325.909 542.028 325.591 541.886C325.276 541.743 325.014 541.526 324.805 541.234C324.6 540.943 324.497 540.575 324.497 540.131V532.534ZM331.936 542.159C331.2 542.159 330.565 541.997 330.032 541.672C329.501 541.344 329.092 540.886 328.804 540.3C328.519 539.71 328.376 539.024 328.376 538.241C328.376 537.459 328.519 536.77 328.804 536.173C329.092 535.573 329.493 535.106 330.007 534.771C330.524 534.433 331.127 534.264 331.816 534.264C332.214 534.264 332.607 534.33 332.995 534.463C333.382 534.596 333.735 534.811 334.054 535.109C334.372 535.404 334.625 535.795 334.814 536.283C335.003 536.77 335.098 537.37 335.098 538.082V538.58H329.211V537.565H333.904C333.904 537.134 333.818 536.75 333.646 536.412C333.477 536.074 333.235 535.807 332.92 535.612C332.609 535.416 332.241 535.318 331.816 535.318C331.349 535.318 330.945 535.434 330.603 535.666C330.265 535.895 330.005 536.193 329.823 536.561C329.641 536.929 329.549 537.323 329.549 537.744V538.42C329.549 538.997 329.649 539.486 329.848 539.887C330.05 540.285 330.33 540.588 330.688 540.797C331.046 541.002 331.462 541.105 331.936 541.105C332.244 541.105 332.522 541.062 332.771 540.976C333.023 540.886 333.24 540.754 333.422 540.578C333.605 540.399 333.745 540.177 333.845 539.912L334.978 540.23C334.859 540.615 334.658 540.953 334.377 541.244C334.095 541.533 333.747 541.758 333.333 541.92C332.918 542.08 332.453 542.159 331.936 542.159ZM336.632 542V534.364H337.766V535.517H337.846C337.985 535.139 338.237 534.833 338.601 534.597C338.966 534.362 339.377 534.244 339.834 534.244C339.92 534.244 340.028 534.246 340.157 534.249C340.287 534.253 340.384 534.258 340.451 534.264V535.457C340.411 535.447 340.32 535.433 340.177 535.413C340.038 535.389 339.891 535.378 339.735 535.378C339.364 535.378 339.032 535.456 338.74 535.612C338.452 535.764 338.223 535.976 338.054 536.248C337.889 536.516 337.806 536.823 337.806 537.168V542H336.632ZM346.452 537.406V542H345.279V531.818H346.452V535.557H346.552C346.731 535.162 346.999 534.849 347.357 534.617C347.718 534.382 348.199 534.264 348.799 534.264C349.319 534.264 349.775 534.369 350.166 534.577C350.557 534.783 350.86 535.099 351.076 535.527C351.295 535.951 351.404 536.491 351.404 537.148V542H350.231V537.227C350.231 536.621 350.073 536.152 349.758 535.82C349.447 535.486 349.014 535.318 348.461 535.318C348.076 535.318 347.732 535.399 347.427 535.562C347.125 535.724 346.886 535.961 346.711 536.273C346.538 536.584 346.452 536.962 346.452 537.406ZM356.502 542.159C355.766 542.159 355.132 541.997 354.598 541.672C354.068 541.344 353.658 540.886 353.37 540.3C353.085 539.71 352.942 539.024 352.942 538.241C352.942 537.459 353.085 536.77 353.37 536.173C353.658 535.573 354.059 535.106 354.573 534.771C355.09 534.433 355.693 534.264 356.383 534.264C356.781 534.264 357.173 534.33 357.561 534.463C357.949 534.596 358.302 534.811 358.62 535.109C358.938 535.404 359.192 535.795 359.381 536.283C359.57 536.77 359.664 537.37 359.664 538.082V538.58H353.778V537.565H358.471C358.471 537.134 358.385 536.75 358.212 536.412C358.043 536.074 357.801 535.807 357.487 535.612C357.175 535.416 356.807 535.318 356.383 535.318C355.915 535.318 355.511 535.434 355.17 535.666C354.832 535.895 354.571 536.193 354.389 536.561C354.207 536.929 354.116 537.323 354.116 537.744V538.42C354.116 538.997 354.215 539.486 354.414 539.887C354.616 540.285 354.896 540.588 355.254 540.797C355.612 541.002 356.028 541.105 356.502 541.105C356.81 541.105 357.089 541.062 357.337 540.976C357.589 540.886 357.806 540.754 357.989 540.578C358.171 540.399 358.312 540.177 358.411 539.912L359.545 540.23C359.425 540.615 359.225 540.953 358.943 541.244C358.661 541.533 358.313 541.758 357.899 541.92C357.485 542.08 357.019 542.159 356.502 542.159ZM361.199 542V534.364H362.332V535.517H362.412C362.551 535.139 362.803 534.833 363.168 534.597C363.532 534.362 363.943 534.244 364.401 534.244C364.487 534.244 364.594 534.246 364.724 534.249C364.853 534.253 364.951 534.258 365.017 534.264V535.457C364.977 535.447 364.886 535.433 364.744 535.413C364.604 535.389 364.457 535.378 364.301 535.378C363.93 535.378 363.598 535.456 363.307 535.612C363.018 535.764 362.79 535.976 362.621 536.248C362.455 536.516 362.372 536.823 362.372 537.168V542H361.199ZM369.127 542.159C368.391 542.159 367.757 541.997 367.223 541.672C366.693 541.344 366.283 540.886 365.995 540.3C365.71 539.71 365.567 539.024 365.567 538.241C365.567 537.459 365.71 536.77 365.995 536.173C366.283 535.573 366.684 535.106 367.198 534.771C367.715 534.433 368.318 534.264 369.008 534.264C369.406 534.264 369.798 534.33 370.186 534.463C370.574 534.596 370.927 534.811 371.245 535.109C371.563 535.404 371.817 535.795 372.006 536.283C372.195 536.77 372.289 537.37 372.289 538.082V538.58H366.403V537.565H371.096C371.096 537.134 371.01 536.75 370.837 536.412C370.668 536.074 370.426 535.807 370.112 535.612C369.8 535.416 369.432 535.318 369.008 535.318C368.54 535.318 368.136 535.434 367.795 535.666C367.457 535.895 367.196 536.193 367.014 536.561C366.832 536.929 366.741 537.323 366.741 537.744V538.42C366.741 538.997 366.84 539.486 367.039 539.887C367.241 540.285 367.521 540.588 367.879 540.797C368.237 541.002 368.653 541.105 369.127 541.105C369.435 541.105 369.714 541.062 369.962 540.976C370.214 540.886 370.431 540.754 370.614 540.578C370.796 540.399 370.937 540.177 371.036 539.912L372.17 540.23C372.05 540.615 371.85 540.953 371.568 541.244C371.286 541.533 370.938 541.758 370.524 541.92C370.11 542.08 369.644 542.159 369.127 542.159Z" fill="#29A5EA"/>
<path d="M287.967 544.784H373.005V545.739H287.967V544.784Z" fill="#29A5EA"/>
<path d="M174.307 531.818V542H173.114L167.565 534.006H167.466V542H166.233V531.818H167.426L172.994 539.832H173.094V531.818H174.307ZM179.467 542.159C178.778 542.159 178.173 541.995 177.653 541.667C177.135 541.339 176.731 540.88 176.439 540.29C176.151 539.7 176.007 539.01 176.007 538.222C176.007 537.426 176.151 536.732 176.439 536.138C176.731 535.545 177.135 535.085 177.653 534.756C178.173 534.428 178.778 534.264 179.467 534.264C180.157 534.264 180.76 534.428 181.277 534.756C181.797 535.085 182.202 535.545 182.49 536.138C182.782 536.732 182.927 537.426 182.927 538.222C182.927 539.01 182.782 539.7 182.49 540.29C182.202 540.88 181.797 541.339 181.277 541.667C180.76 541.995 180.157 542.159 179.467 542.159ZM179.467 541.105C179.991 541.105 180.422 540.971 180.76 540.702C181.098 540.434 181.348 540.081 181.51 539.643C181.673 539.206 181.754 538.732 181.754 538.222C181.754 537.711 181.673 537.236 181.51 536.795C181.348 536.354 181.098 535.998 180.76 535.726C180.422 535.454 179.991 535.318 179.467 535.318C178.943 535.318 178.513 535.454 178.175 535.726C177.836 535.998 177.586 536.354 177.424 536.795C177.261 537.236 177.18 537.711 177.18 538.222C177.18 538.732 177.261 539.206 177.424 539.643C177.586 540.081 177.836 540.434 178.175 540.702C178.513 540.971 178.943 541.105 179.467 541.105ZM187.789 534.364V535.358H183.832V534.364H187.789ZM184.985 532.534H186.159V539.812C186.159 540.144 186.207 540.393 186.303 540.558C186.402 540.721 186.528 540.83 186.681 540.886C186.837 540.939 187.001 540.966 187.173 540.966C187.302 540.966 187.408 540.959 187.491 540.946C187.574 540.929 187.64 540.916 187.69 540.906L187.929 541.96C187.849 541.99 187.738 542.02 187.596 542.05C187.453 542.083 187.272 542.099 187.054 542.099C186.722 542.099 186.397 542.028 186.079 541.886C185.764 541.743 185.502 541.526 185.294 541.234C185.088 540.943 184.985 540.575 184.985 540.131V532.534ZM194.165 537.406V542H192.992V531.818H194.165V535.557H194.265C194.444 535.162 194.712 534.849 195.07 534.617C195.431 534.382 195.912 534.264 196.512 534.264C197.032 534.264 197.488 534.369 197.879 534.577C198.27 534.783 198.573 535.099 198.789 535.527C199.007 535.951 199.117 536.491 199.117 537.148V542H197.944V537.227C197.944 536.621 197.786 536.152 197.471 535.82C197.16 535.486 196.727 535.318 196.174 535.318C195.789 535.318 195.444 535.399 195.14 535.562C194.838 535.724 194.599 535.961 194.424 536.273C194.251 536.584 194.165 536.962 194.165 537.406ZM203.26 542.179C202.777 542.179 202.337 542.088 201.943 541.906C201.549 541.72 201.235 541.453 201.003 541.105C200.771 540.754 200.655 540.33 200.655 539.832C200.655 539.395 200.742 539.04 200.914 538.768C201.086 538.493 201.317 538.278 201.605 538.122C201.893 537.966 202.211 537.85 202.559 537.774C202.911 537.695 203.264 537.632 203.618 537.585C204.082 537.526 204.459 537.481 204.747 537.451C205.039 537.418 205.251 537.363 205.383 537.287C205.519 537.211 205.587 537.078 205.587 536.889V536.849C205.587 536.359 205.453 535.978 205.184 535.706C204.919 535.434 204.517 535.298 203.976 535.298C203.416 535.298 202.977 535.421 202.659 535.666C202.341 535.911 202.117 536.173 201.988 536.452L200.874 536.054C201.073 535.59 201.338 535.229 201.67 534.97C202.004 534.708 202.369 534.526 202.763 534.423C203.161 534.317 203.552 534.264 203.937 534.264C204.182 534.264 204.464 534.294 204.782 534.354C205.103 534.41 205.413 534.528 205.711 534.707C206.013 534.886 206.263 535.156 206.462 535.517C206.661 535.878 206.76 536.362 206.76 536.969V542H205.587V540.966H205.528C205.448 541.132 205.315 541.309 205.13 541.498C204.944 541.687 204.697 541.848 204.389 541.98C204.081 542.113 203.705 542.179 203.26 542.179ZM203.439 541.125C203.903 541.125 204.295 541.034 204.613 540.852C204.934 540.669 205.176 540.434 205.339 540.146C205.504 539.857 205.587 539.554 205.587 539.236V538.162C205.537 538.222 205.428 538.276 205.259 538.326C205.093 538.372 204.901 538.414 204.682 538.45C204.467 538.483 204.256 538.513 204.051 538.54C203.849 538.563 203.685 538.583 203.559 538.599C203.254 538.639 202.969 538.704 202.704 538.793C202.442 538.879 202.23 539.01 202.067 539.186C201.908 539.358 201.829 539.594 201.829 539.892C201.829 540.3 201.979 540.608 202.281 540.817C202.586 541.022 202.972 541.125 203.439 541.125ZM214.623 534.364L211.799 542H210.606L207.782 534.364H209.055L211.163 540.449H211.242L213.35 534.364H214.623ZM218.85 542.159C218.114 542.159 217.479 541.997 216.946 541.672C216.415 541.344 216.006 540.886 215.718 540.3C215.433 539.71 215.29 539.024 215.29 538.241C215.29 537.459 215.433 536.77 215.718 536.173C216.006 535.573 216.407 535.106 216.921 534.771C217.438 534.433 218.041 534.264 218.73 534.264C219.128 534.264 219.521 534.33 219.909 534.463C220.297 534.596 220.65 534.811 220.968 535.109C221.286 535.404 221.539 535.795 221.728 536.283C221.917 536.77 222.012 537.37 222.012 538.082V538.58H216.125V537.565H220.819C220.819 537.134 220.732 536.75 220.56 536.412C220.391 536.074 220.149 535.807 219.834 535.612C219.523 535.416 219.155 535.318 218.73 535.318C218.263 535.318 217.859 535.434 217.517 535.666C217.179 535.895 216.919 536.193 216.737 536.561C216.555 536.929 216.463 537.323 216.463 537.744V538.42C216.463 538.997 216.563 539.486 216.762 539.887C216.964 540.285 217.244 540.588 217.602 540.797C217.96 541.002 218.376 541.105 218.85 541.105C219.158 541.105 219.436 541.062 219.685 540.976C219.937 540.886 220.154 540.754 220.336 540.578C220.519 540.399 220.659 540.177 220.759 539.912L221.892 540.23C221.773 540.615 221.573 540.953 221.291 541.244C221.009 541.533 220.661 541.758 220.247 541.92C219.833 542.08 219.367 542.159 218.85 542.159ZM229.481 542.179C228.997 542.179 228.558 542.088 228.164 541.906C227.769 541.72 227.456 541.453 227.224 541.105C226.992 540.754 226.876 540.33 226.876 539.832C226.876 539.395 226.962 539.04 227.135 538.768C227.307 538.493 227.537 538.278 227.826 538.122C228.114 537.966 228.432 537.85 228.78 537.774C229.132 537.695 229.484 537.632 229.839 537.585C230.303 537.526 230.679 537.481 230.968 537.451C231.259 537.418 231.471 537.363 231.604 537.287C231.74 537.211 231.808 537.078 231.808 536.889V536.849C231.808 536.359 231.674 535.978 231.405 535.706C231.14 535.434 230.737 535.298 230.197 535.298C229.637 535.298 229.198 535.421 228.88 535.666C228.561 535.911 228.338 536.173 228.208 536.452L227.095 536.054C227.294 535.59 227.559 535.229 227.89 534.97C228.225 534.708 228.59 534.526 228.984 534.423C229.382 534.317 229.773 534.264 230.157 534.264C230.403 534.264 230.684 534.294 231.002 534.354C231.324 534.41 231.634 534.528 231.932 534.707C232.234 534.886 232.484 535.156 232.683 535.517C232.882 535.878 232.981 536.362 232.981 536.969V542H231.808V540.966H231.748C231.669 541.132 231.536 541.309 231.35 541.498C231.165 541.687 230.918 541.848 230.61 541.98C230.301 542.113 229.925 542.179 229.481 542.179ZM229.66 541.125C230.124 541.125 230.515 541.034 230.833 540.852C231.155 540.669 231.397 540.434 231.559 540.146C231.725 539.857 231.808 539.554 231.808 539.236V538.162C231.758 538.222 231.649 538.276 231.48 538.326C231.314 538.372 231.122 538.414 230.903 538.45C230.688 538.483 230.477 538.513 230.272 538.54C230.069 538.563 229.905 538.583 229.779 538.599C229.475 538.639 229.19 538.704 228.924 538.793C228.663 538.879 228.45 539.01 228.288 539.186C228.129 539.358 228.049 539.594 228.049 539.892C228.049 540.3 228.2 540.608 228.502 540.817C228.807 541.022 229.193 541.125 229.66 541.125ZM237.975 542.159C237.259 542.159 236.643 541.99 236.126 541.652C235.608 541.314 235.211 540.848 234.932 540.255C234.654 539.662 234.515 538.984 234.515 538.222C234.515 537.446 234.657 536.762 234.942 536.168C235.231 535.572 235.632 535.106 236.145 534.771C236.662 534.433 237.266 534.264 237.955 534.264C238.492 534.264 238.976 534.364 239.407 534.562C239.838 534.761 240.191 535.04 240.466 535.398C240.741 535.756 240.912 536.173 240.978 536.651H239.805C239.715 536.303 239.516 535.994 239.208 535.726C238.903 535.454 238.492 535.318 237.975 535.318C237.518 535.318 237.117 535.437 236.772 535.676C236.43 535.911 236.164 536.245 235.971 536.675C235.782 537.103 235.688 537.605 235.688 538.182C235.688 538.772 235.781 539.286 235.966 539.723C236.155 540.161 236.421 540.5 236.762 540.742C237.107 540.984 237.511 541.105 237.975 541.105C238.28 541.105 238.557 541.052 238.805 540.946C239.054 540.84 239.264 540.688 239.437 540.489C239.609 540.29 239.732 540.051 239.805 539.773H240.978C240.912 540.223 240.747 540.629 240.486 540.991C240.227 541.349 239.884 541.634 239.456 541.846C239.032 542.055 238.538 542.159 237.975 542.159ZM245.545 542.159C244.829 542.159 244.213 541.99 243.696 541.652C243.179 541.314 242.781 540.848 242.503 540.255C242.224 539.662 242.085 538.984 242.085 538.222C242.085 537.446 242.228 536.762 242.513 536.168C242.801 535.572 243.202 535.106 243.716 534.771C244.233 534.433 244.836 534.264 245.525 534.264C246.062 534.264 246.546 534.364 246.977 534.562C247.408 534.761 247.761 535.04 248.036 535.398C248.311 535.756 248.482 536.173 248.548 536.651H247.375C247.285 536.303 247.086 535.994 246.778 535.726C246.473 535.454 246.062 535.318 245.545 535.318C245.088 535.318 244.687 535.437 244.342 535.676C244.001 535.911 243.734 536.245 243.542 536.675C243.353 537.103 243.258 537.605 243.258 538.182C243.258 538.772 243.351 539.286 243.537 539.723C243.726 540.161 243.991 540.5 244.332 540.742C244.677 540.984 245.081 541.105 245.545 541.105C245.85 541.105 246.127 541.052 246.376 540.946C246.624 540.84 246.835 540.688 247.007 540.489C247.179 540.29 247.302 540.051 247.375 539.773H248.548C248.482 540.223 248.318 540.629 248.056 540.991C247.797 541.349 247.454 541.634 247.027 541.846C246.603 542.055 246.109 542.159 245.545 542.159ZM253.116 542.159C252.426 542.159 251.821 541.995 251.301 541.667C250.784 541.339 250.38 540.88 250.088 540.29C249.8 539.7 249.655 539.01 249.655 538.222C249.655 537.426 249.8 536.732 250.088 536.138C250.38 535.545 250.784 535.085 251.301 534.756C251.821 534.428 252.426 534.264 253.116 534.264C253.805 534.264 254.408 534.428 254.925 534.756C255.446 535.085 255.85 535.545 256.138 536.138C256.43 536.732 256.576 537.426 256.576 538.222C256.576 539.01 256.43 539.7 256.138 540.29C255.85 540.88 255.446 541.339 254.925 541.667C254.408 541.995 253.805 542.159 253.116 542.159ZM253.116 541.105C253.639 541.105 254.07 540.971 254.408 540.702C254.746 540.434 254.997 540.081 255.159 539.643C255.321 539.206 255.403 538.732 255.403 538.222C255.403 537.711 255.321 537.236 255.159 536.795C254.997 536.354 254.746 535.998 254.408 535.726C254.07 535.454 253.639 535.318 253.116 535.318C252.592 535.318 252.161 535.454 251.823 535.726C251.485 535.998 251.235 536.354 251.072 536.795C250.91 537.236 250.829 537.711 250.829 538.222C250.829 538.732 250.91 539.206 251.072 539.643C251.235 540.081 251.485 540.434 251.823 540.702C252.161 540.971 252.592 541.105 253.116 541.105ZM262.929 538.878V534.364H264.103V542H262.929V540.707H262.85C262.671 541.095 262.392 541.425 262.015 541.697C261.637 541.965 261.159 542.099 260.583 542.099C260.105 542.099 259.681 541.995 259.31 541.786C258.939 541.574 258.647 541.256 258.435 540.832C258.223 540.404 258.117 539.866 258.117 539.216V534.364H259.29V539.136C259.29 539.693 259.446 540.137 259.757 540.469C260.072 540.8 260.473 540.966 260.961 540.966C261.252 540.966 261.549 540.891 261.85 540.742C262.155 540.593 262.411 540.364 262.616 540.056C262.825 539.748 262.929 539.355 262.929 538.878ZM267.175 537.406V542H266.002V534.364H267.135V535.557H267.235C267.414 535.169 267.685 534.857 268.05 534.622C268.414 534.384 268.885 534.264 269.462 534.264C269.979 534.264 270.431 534.37 270.819 534.582C271.207 534.791 271.508 535.109 271.724 535.537C271.939 535.961 272.047 536.498 272.047 537.148V542H270.874V537.227C270.874 536.627 270.718 536.16 270.406 535.825C270.095 535.487 269.667 535.318 269.124 535.318C268.749 535.318 268.414 535.399 268.119 535.562C267.828 535.724 267.597 535.961 267.428 536.273C267.259 536.584 267.175 536.962 267.175 537.406ZM277.262 534.364V535.358H273.305V534.364H277.262ZM274.458 532.534H275.631V539.812C275.631 540.144 275.679 540.393 275.776 540.558C275.875 540.721 276.001 540.83 276.153 540.886C276.309 540.939 276.473 540.966 276.646 540.966C276.775 540.966 276.881 540.959 276.964 540.946C277.047 540.929 277.113 540.916 277.163 540.906L277.401 541.96C277.322 541.99 277.211 542.02 277.068 542.05C276.926 542.083 276.745 542.099 276.526 542.099C276.195 542.099 275.87 542.028 275.552 541.886C275.237 541.743 274.975 541.526 274.766 541.234C274.561 540.943 274.458 540.575 274.458 540.131V532.534ZM280.308 539.136V539.077C280.315 538.444 280.381 537.94 280.507 537.565C280.633 537.191 280.812 536.888 281.044 536.656C281.276 536.424 281.554 536.21 281.879 536.014C282.075 535.895 282.25 535.754 282.406 535.592C282.562 535.426 282.685 535.235 282.774 535.02C282.867 534.804 282.913 534.566 282.913 534.304C282.913 533.979 282.837 533.697 282.685 533.459C282.532 533.22 282.328 533.036 282.073 532.907C281.818 532.778 281.535 532.713 281.223 532.713C280.951 532.713 280.689 532.769 280.438 532.882C280.186 532.995 279.975 533.172 279.806 533.414C279.637 533.656 279.539 533.973 279.513 534.364H278.26C278.286 533.8 278.432 533.318 278.697 532.917C278.966 532.516 279.319 532.209 279.756 531.997C280.197 531.785 280.686 531.679 281.223 531.679C281.806 531.679 282.313 531.795 282.744 532.027C283.179 532.259 283.513 532.577 283.749 532.982C283.987 533.386 284.107 533.847 284.107 534.364C284.107 534.728 284.05 535.058 283.938 535.353C283.828 535.648 283.669 535.911 283.46 536.143C283.255 536.375 283.006 536.581 282.714 536.76C282.423 536.942 282.189 537.134 282.013 537.337C281.838 537.536 281.71 537.772 281.631 538.048C281.551 538.323 281.508 538.666 281.501 539.077V539.136H280.308ZM280.945 542.08C280.699 542.08 280.489 541.992 280.313 541.816C280.138 541.64 280.05 541.43 280.05 541.185C280.05 540.939 280.138 540.729 280.313 540.553C280.489 540.378 280.699 540.29 280.945 540.29C281.19 540.29 281.4 540.378 281.576 540.553C281.752 540.729 281.839 540.939 281.839 541.185C281.839 541.347 281.798 541.496 281.715 541.632C281.636 541.768 281.528 541.877 281.392 541.96C281.259 542.04 281.11 542.08 280.945 542.08Z" fill="black"/>
</g>
<defs>
<filter id="filter0_di_7_404" x="0" y="2.92621" width="542" height="583.939" filterUnits="userSpaceOnUse" color-interpolation-filters="sRGB">
<feFlood flood-opacity="0" result="BackgroundImageFix"/>
<feColorMatrix in="SourceAlpha" type="matrix" values="0 0 0 0 0 0 0 0 0 0 0 0 0 0 0 0 0 0 127 0" result="hardAlpha"/>
<feOffset dx="2" dy="5"/>
<feGaussianBlur stdDeviation="1.5"/>
<feComposite in2="hardAlpha" operator="out"/>
<feColorMatrix type="matrix" values="0 0 0 0 0 0 0 0 0 0 0 0 0 0 0 0 0 0 0.25 0"/>
<feBlend mode="normal" in2="BackgroundImageFix" result="effect1_dropShadow_7_404"/>
<feBlend mode="normal" in="SourceGraphic" in2="effect1_dropShadow_7_404" result="shape"/>
<feColorMatrix in="SourceAlpha" type="matrix" values="0 0 0 0 0 0 0 0 0 0 0 0 0 0 0 0 0 0 127 0" result="hardAlpha"/>
<feOffset dy="4"/>
<feGaussianBlur stdDeviation="2"/>
<feComposite in2="hardAlpha" operator="arithmetic" k2="-1" k3="1"/>
<feColorMatrix type="matrix" values="0 0 0 0 0 0 0 0 0 0 0 0 0 0 0 0 0 0 0.25 0"/>
<feBlend mode="normal" in2="shape" result="effect2_innerShadow_7_404"/>
</filter>
</defs>
</svg>
