<svg width="552" height="608" viewBox="0 0 552 608" fill="none" xmlns="http://www.w3.org/2000/svg">
<g filter="url(#filter0_di_1_2194)">
<path d="M3 102.729C3 92.9023 10.1394 84.5311 19.8433 82.9801L515.843 3.70128C527.994 1.75916 539 11.1456 539 23.4506V569.681C539 581.592 528.654 590.863 516.814 589.561L20.8143 535.03C10.6756 533.916 3 525.35 3 515.15V102.729Z" fill="white"/>
</g>
<path d="M225.912 86.3017V63.029H228.73V83.8017H239.548V86.3017H225.912ZM262.392 74.6653C262.392 77.1199 261.949 79.2411 261.062 81.029C260.176 82.8168 258.96 84.1956 257.415 85.1653C255.869 86.135 254.104 86.6199 252.119 86.6199C250.134 86.6199 248.369 86.135 246.824 85.1653C245.278 84.1956 244.063 82.8168 243.176 81.029C242.29 79.2411 241.847 77.1199 241.847 74.6653C241.847 72.2108 242.29 70.0896 243.176 68.3017C244.063 66.5138 245.278 65.135 246.824 64.1653C248.369 63.1956 250.134 62.7108 252.119 62.7108C254.104 62.7108 255.869 63.1956 257.415 64.1653C258.96 65.135 260.176 66.5138 261.062 68.3017C261.949 70.0896 262.392 72.2108 262.392 74.6653ZM259.665 74.6653C259.665 72.6502 259.328 70.9494 258.653 69.5631C257.987 68.1767 257.081 67.1275 255.938 66.4153C254.801 65.7032 253.528 65.3472 252.119 65.3472C250.71 65.3472 249.434 65.7032 248.29 66.4153C247.153 67.1275 246.248 68.1767 245.574 69.5631C244.907 70.9494 244.574 72.6502 244.574 74.6653C244.574 76.6805 244.907 78.3812 245.574 79.7676C246.248 81.154 247.153 82.2032 248.29 82.9153C249.434 83.6275 250.71 83.9835 252.119 83.9835C253.528 83.9835 254.801 83.6275 255.938 82.9153C257.081 82.2032 257.987 81.154 258.653 79.7676C259.328 78.3812 259.665 76.6805 259.665 74.6653ZM282.79 70.3017C282.54 69.5365 282.21 68.8509 281.801 68.2449C281.4 67.6312 280.919 67.1085 280.358 66.6767C279.805 66.2449 279.176 65.9153 278.472 65.6881C277.767 65.4608 276.994 65.3472 276.153 65.3472C274.775 65.3472 273.521 65.7032 272.392 66.4153C271.263 67.1275 270.366 68.1767 269.699 69.5631C269.032 70.9494 268.699 72.6502 268.699 74.6653C268.699 76.6805 269.036 78.3812 269.71 79.7676C270.384 81.154 271.297 82.2032 272.449 82.9153C273.6 83.6275 274.896 83.9835 276.335 83.9835C277.669 83.9835 278.843 83.6994 279.858 83.1312C280.881 82.5555 281.676 81.7449 282.244 80.6994C282.82 79.6464 283.108 78.4078 283.108 76.9835L283.972 77.1653H276.972V74.6653H285.835V77.1653C285.835 79.082 285.426 80.7487 284.608 82.1653C283.797 83.582 282.676 84.6805 281.244 85.4608C279.82 86.2335 278.184 86.6199 276.335 86.6199C274.275 86.6199 272.464 86.135 270.903 85.1653C269.35 84.1956 268.138 82.8168 267.267 81.029C266.403 79.2411 265.972 77.1199 265.972 74.6653C265.972 72.8244 266.218 71.1691 266.71 69.6994C267.21 68.2222 267.915 66.9646 268.824 65.9267C269.733 64.8888 270.809 64.0934 272.051 63.5403C273.294 62.9873 274.661 62.7108 276.153 62.7108C277.381 62.7108 278.525 62.8964 279.585 63.2676C280.653 63.6312 281.604 64.1502 282.438 64.8244C283.278 65.4911 283.979 66.2903 284.54 67.2222C285.1 68.1464 285.487 69.1729 285.699 70.3017H282.79ZM293.23 63.029V86.3017H290.412V63.029H293.23ZM317.085 63.029V86.3017H314.358L301.676 68.029H301.449V86.3017H298.631V63.029H301.358L314.085 81.3472H314.312V63.029H317.085Z" fill="black"/>
<rect x="91" y="155.026" width="360" height="40.7963" rx="16" fill="#F0FCF6"/>
<path d="M117.307 169.294H119.068V178.924C119.068 179.919 118.834 180.807 118.365 181.588C117.901 182.364 117.245 182.977 116.398 183.427C115.55 183.872 114.556 184.095 113.415 184.095C112.274 184.095 111.279 183.872 110.432 183.427C109.584 182.977 108.926 182.364 108.457 181.588C107.993 180.807 107.761 179.919 107.761 178.924V169.294H109.523V178.782C109.523 179.493 109.679 180.125 109.991 180.679C110.304 181.228 110.749 181.661 111.327 181.978C111.909 182.291 112.605 182.447 113.415 182.447C114.224 182.447 114.92 182.291 115.503 181.978C116.085 181.661 116.53 181.228 116.838 180.679C117.151 180.125 117.307 179.493 117.307 178.782V169.294ZM129.836 175.373L128.33 175.799C128.235 175.548 128.096 175.305 127.911 175.068C127.731 174.826 127.485 174.628 127.172 174.471C126.86 174.315 126.46 174.237 125.972 174.237C125.304 174.237 124.748 174.391 124.303 174.699C123.863 175.002 123.642 175.387 123.642 175.856C123.642 176.273 123.794 176.602 124.097 176.843C124.4 177.085 124.873 177.286 125.517 177.447L127.137 177.845C128.112 178.082 128.839 178.444 129.317 178.932C129.795 179.414 130.034 180.037 130.034 180.799C130.034 181.424 129.855 181.983 129.495 182.476C129.14 182.968 128.642 183.356 128.003 183.64C127.364 183.924 126.621 184.066 125.773 184.066C124.66 184.066 123.739 183.825 123.01 183.342C122.281 182.859 121.819 182.154 121.625 181.226L123.216 180.828C123.368 181.415 123.654 181.855 124.076 182.149C124.502 182.442 125.058 182.589 125.745 182.589C126.526 182.589 127.146 182.423 127.605 182.092C128.069 181.756 128.301 181.353 128.301 180.885C128.301 180.506 128.169 180.189 127.904 179.933C127.639 179.673 127.231 179.478 126.682 179.351L124.864 178.924C123.865 178.688 123.131 178.321 122.662 177.824C122.198 177.322 121.966 176.694 121.966 175.941C121.966 175.326 122.139 174.781 122.485 174.308C122.835 173.834 123.311 173.463 123.912 173.193C124.518 172.923 125.205 172.788 125.972 172.788C127.051 172.788 127.899 173.025 128.515 173.498C129.135 173.972 129.575 174.597 129.836 175.373ZM136.881 184.066C135.83 184.066 134.924 183.834 134.161 183.37C133.404 182.902 132.819 182.248 132.407 181.41C132 180.567 131.796 179.587 131.796 178.47C131.796 177.352 132 176.368 132.407 175.515C132.819 174.658 133.392 173.991 134.126 173.512C134.864 173.03 135.726 172.788 136.711 172.788C137.279 172.788 137.84 172.883 138.394 173.072C138.948 173.262 139.452 173.569 139.907 173.995C140.362 174.417 140.724 174.976 140.994 175.672C141.263 176.368 141.398 177.225 141.398 178.243V178.953H132.989V177.504H139.694C139.694 176.888 139.571 176.339 139.325 175.856C139.083 175.373 138.737 174.992 138.288 174.713C137.843 174.433 137.317 174.294 136.711 174.294C136.043 174.294 135.466 174.459 134.978 174.791C134.495 175.118 134.123 175.544 133.863 176.069C133.603 176.595 133.472 177.158 133.472 177.76V178.726C133.472 179.549 133.614 180.248 133.898 180.821C134.187 181.389 134.587 181.822 135.099 182.12C135.61 182.414 136.204 182.561 136.881 182.561C137.322 182.561 137.719 182.499 138.075 182.376C138.434 182.248 138.745 182.059 139.005 181.808C139.265 181.552 139.467 181.235 139.609 180.856L141.228 181.311C141.058 181.86 140.771 182.343 140.369 182.76C139.966 183.172 139.469 183.494 138.877 183.726C138.285 183.953 137.62 184.066 136.881 184.066ZM143.698 183.839V172.93H145.317V174.578H145.431C145.63 174.038 145.99 173.6 146.511 173.264C147.031 172.928 147.619 172.76 148.272 172.76C148.395 172.76 148.549 172.762 148.734 172.767C148.918 172.771 149.058 172.779 149.153 172.788V174.493C149.096 174.478 148.966 174.457 148.762 174.429C148.563 174.396 148.353 174.379 148.13 174.379C147.6 174.379 147.126 174.49 146.71 174.713C146.298 174.931 145.971 175.234 145.729 175.622C145.493 176.005 145.374 176.443 145.374 176.936V183.839H143.698ZM152.566 177.277V183.839H150.89V172.93H152.509V174.635H152.651C152.907 174.081 153.295 173.636 153.816 173.299C154.337 172.959 155.009 172.788 155.833 172.788C156.571 172.788 157.218 172.94 157.772 173.243C158.326 173.541 158.757 173.995 159.064 174.606C159.372 175.212 159.526 175.979 159.526 176.907V183.839H157.85V177.021C157.85 176.164 157.627 175.496 157.182 175.018C156.737 174.535 156.126 174.294 155.35 174.294C154.815 174.294 154.337 174.41 153.915 174.642C153.498 174.874 153.169 175.212 152.928 175.657C152.686 176.102 152.566 176.642 152.566 177.277ZM165.549 184.095C164.858 184.095 164.23 183.965 163.667 183.704C163.103 183.439 162.656 183.058 162.325 182.561C161.993 182.059 161.827 181.453 161.827 180.743C161.827 180.118 161.951 179.611 162.197 179.223C162.443 178.83 162.772 178.522 163.184 178.299C163.596 178.077 164.05 177.911 164.548 177.802C165.049 177.689 165.554 177.599 166.06 177.532C166.723 177.447 167.261 177.383 167.673 177.341C168.089 177.293 168.392 177.215 168.582 177.106C168.776 176.997 168.873 176.808 168.873 176.538V176.481C168.873 175.78 168.681 175.236 168.298 174.848C167.919 174.459 167.344 174.265 166.572 174.265C165.772 174.265 165.144 174.441 164.69 174.791C164.235 175.141 163.915 175.515 163.731 175.913L162.14 175.345C162.424 174.682 162.803 174.166 163.276 173.797C163.754 173.423 164.275 173.162 164.839 173.015C165.407 172.864 165.966 172.788 166.515 172.788C166.865 172.788 167.268 172.831 167.722 172.916C168.182 172.996 168.624 173.164 169.05 173.42C169.481 173.676 169.839 174.062 170.123 174.578C170.407 175.094 170.549 175.785 170.549 176.652V183.839H168.873V182.362H168.788C168.674 182.599 168.485 182.852 168.219 183.122C167.954 183.392 167.602 183.621 167.161 183.811C166.721 184 166.183 184.095 165.549 184.095ZM165.805 182.589C166.468 182.589 167.026 182.459 167.481 182.199C167.94 181.938 168.286 181.602 168.518 181.19C168.754 180.778 168.873 180.345 168.873 179.89V178.356C168.802 178.441 168.646 178.52 168.404 178.591C168.167 178.657 167.893 178.716 167.58 178.768C167.272 178.816 166.972 178.858 166.678 178.896C166.389 178.929 166.155 178.958 165.975 178.981C165.54 179.038 165.132 179.13 164.754 179.258C164.379 179.381 164.076 179.568 163.844 179.819C163.617 180.066 163.504 180.402 163.504 180.828C163.504 181.41 163.719 181.851 164.15 182.149C164.585 182.442 165.137 182.589 165.805 182.589ZM173.358 183.839V172.93H174.978V174.635H175.12C175.347 174.052 175.714 173.6 176.221 173.278C176.727 172.951 177.336 172.788 178.046 172.788C178.766 172.788 179.364 172.951 179.843 173.278C180.326 173.6 180.702 174.052 180.972 174.635H181.086C181.365 174.071 181.784 173.624 182.343 173.292C182.901 172.956 183.571 172.788 184.353 172.788C185.328 172.788 186.126 173.093 186.746 173.704C187.366 174.31 187.676 175.255 187.676 176.538V183.839H186V176.538C186 175.733 185.78 175.158 185.34 174.812C184.9 174.467 184.381 174.294 183.784 174.294C183.017 174.294 182.423 174.526 182.002 174.99C181.58 175.449 181.37 176.031 181.37 176.737V183.839H179.665V176.368C179.665 175.747 179.464 175.248 179.061 174.869C178.659 174.486 178.141 174.294 177.506 174.294C177.07 174.294 176.663 174.41 176.284 174.642C175.91 174.874 175.607 175.196 175.375 175.608C175.148 176.015 175.034 176.486 175.034 177.021V183.839H173.358ZM195.065 184.066C194.014 184.066 193.107 183.834 192.345 183.37C191.587 182.902 191.002 182.248 190.591 181.41C190.183 180.567 189.98 179.587 189.98 178.47C189.98 177.352 190.183 176.368 190.591 175.515C191.002 174.658 191.575 173.991 192.309 173.512C193.048 173.03 193.91 172.788 194.895 172.788C195.463 172.788 196.024 172.883 196.578 173.072C197.132 173.262 197.636 173.569 198.091 173.995C198.545 174.417 198.907 174.976 199.177 175.672C199.447 176.368 199.582 177.225 199.582 178.243V178.953H191.173V177.504H197.877C197.877 176.888 197.754 176.339 197.508 175.856C197.267 175.373 196.921 174.992 196.471 174.713C196.026 174.433 195.501 174.294 194.895 174.294C194.227 174.294 193.649 174.459 193.162 174.791C192.679 175.118 192.307 175.544 192.047 176.069C191.786 176.595 191.656 177.158 191.656 177.76V178.726C191.656 179.549 191.798 180.248 192.082 180.821C192.371 181.389 192.771 181.822 193.282 182.12C193.794 182.414 194.388 182.561 195.065 182.561C195.505 182.561 195.903 182.499 196.258 182.376C196.618 182.248 196.928 182.059 197.189 181.808C197.449 181.552 197.65 181.235 197.792 180.856L199.412 181.311C199.241 181.86 198.955 182.343 198.552 182.76C198.15 183.172 197.653 183.494 197.061 183.726C196.469 183.953 195.804 184.066 195.065 184.066Z" fill="#C9C9C9"/>
<rect x="91" y="222.113" width="360" height="40.7963" rx="16" fill="#F0FCF6"/>
<path d="M107.761 250.926V236.381H112.676C113.817 236.381 114.75 236.587 115.474 236.999C116.204 237.406 116.743 237.958 117.094 238.654C117.444 239.35 117.619 240.126 117.619 240.983C117.619 241.84 117.444 242.619 117.094 243.32C116.748 244.021 116.213 244.579 115.489 244.996C114.764 245.408 113.836 245.614 112.705 245.614H109.182V244.051H112.648C113.429 244.051 114.056 243.917 114.53 243.647C115.003 243.377 115.347 243.012 115.56 242.553C115.777 242.089 115.886 241.566 115.886 240.983C115.886 240.401 115.777 239.88 115.56 239.421C115.347 238.962 115.001 238.602 114.523 238.341C114.045 238.076 113.41 237.944 112.619 237.944H109.523V250.926H107.761ZM123.19 251.182C122.498 251.182 121.871 251.052 121.308 250.792C120.744 250.526 120.297 250.145 119.965 249.648C119.634 249.146 119.468 248.54 119.468 247.83C119.468 247.205 119.591 246.698 119.837 246.31C120.084 245.917 120.413 245.609 120.825 245.387C121.237 245.164 121.691 244.998 122.188 244.89C122.69 244.776 123.194 244.686 123.701 244.62C124.364 244.534 124.901 244.471 125.313 244.428C125.73 244.381 126.033 244.302 126.222 244.194C126.416 244.085 126.513 243.895 126.513 243.625V243.569C126.513 242.868 126.322 242.323 125.938 241.935C125.559 241.547 124.984 241.353 124.212 241.353C123.412 241.353 122.785 241.528 122.33 241.878C121.876 242.229 121.556 242.603 121.371 243L119.781 242.432C120.065 241.769 120.443 241.253 120.917 240.884C121.395 240.51 121.916 240.249 122.479 240.103C123.048 239.951 123.606 239.875 124.156 239.875C124.506 239.875 124.908 239.918 125.363 240.003C125.822 240.084 126.265 240.252 126.691 240.507C127.122 240.763 127.479 241.149 127.763 241.665C128.048 242.181 128.19 242.873 128.19 243.739V250.926H126.513V249.449H126.428C126.315 249.686 126.125 249.939 125.86 250.209C125.595 250.479 125.242 250.709 124.802 250.898C124.362 251.087 123.824 251.182 123.19 251.182ZM123.445 249.676C124.108 249.676 124.667 249.546 125.121 249.286C125.581 249.025 125.926 248.689 126.158 248.277C126.395 247.865 126.513 247.432 126.513 246.978V245.444C126.442 245.529 126.286 245.607 126.045 245.678C125.808 245.744 125.533 245.803 125.221 245.855C124.913 245.903 124.612 245.945 124.319 245.983C124.03 246.016 123.796 246.045 123.616 246.069C123.18 246.125 122.773 246.218 122.394 246.346C122.02 246.469 121.717 246.656 121.485 246.907C121.258 247.153 121.144 247.489 121.144 247.915C121.144 248.498 121.36 248.938 121.79 249.236C122.226 249.53 122.778 249.676 123.445 249.676ZM138.726 242.461L137.221 242.887C137.126 242.636 136.986 242.392 136.801 242.155C136.622 241.914 136.375 241.715 136.063 241.559C135.75 241.402 135.35 241.324 134.863 241.324C134.195 241.324 133.639 241.478 133.194 241.786C132.753 242.089 132.533 242.475 132.533 242.944C132.533 243.36 132.685 243.689 132.988 243.931C133.291 244.172 133.764 244.373 134.408 244.534L136.027 244.932C137.003 245.169 137.73 245.531 138.208 246.019C138.686 246.502 138.925 247.124 138.925 247.887C138.925 248.512 138.745 249.07 138.385 249.563C138.03 250.055 137.533 250.444 136.894 250.728C136.255 251.012 135.511 251.154 134.664 251.154C133.551 251.154 132.63 250.912 131.901 250.429C131.172 249.946 130.71 249.241 130.516 248.313L132.107 247.915C132.258 248.502 132.545 248.943 132.966 249.236C133.392 249.53 133.949 249.676 134.635 249.676C135.417 249.676 136.037 249.511 136.496 249.179C136.96 248.843 137.192 248.441 137.192 247.972C137.192 247.593 137.06 247.276 136.794 247.02C136.529 246.76 136.122 246.566 135.573 246.438L133.755 246.012C132.756 245.775 132.022 245.408 131.553 244.911C131.089 244.409 130.857 243.782 130.857 243.029C130.857 242.413 131.03 241.869 131.375 241.395C131.726 240.922 132.202 240.55 132.803 240.28C133.409 240.01 134.096 239.875 134.863 239.875C135.942 239.875 136.79 240.112 137.405 240.586C138.025 241.059 138.466 241.684 138.726 242.461ZM148.925 242.461L147.42 242.887C147.325 242.636 147.185 242.392 147.001 242.155C146.821 241.914 146.575 241.715 146.262 241.559C145.95 241.402 145.549 241.324 145.062 241.324C144.394 241.324 143.838 241.478 143.393 241.786C142.952 242.089 142.732 242.475 142.732 242.944C142.732 243.36 142.884 243.689 143.187 243.931C143.49 244.172 143.963 244.373 144.607 244.534L146.227 244.932C147.202 245.169 147.929 245.531 148.407 246.019C148.885 246.502 149.124 247.124 149.124 247.887C149.124 248.512 148.944 249.07 148.585 249.563C148.229 250.055 147.732 250.444 147.093 250.728C146.454 251.012 145.71 251.154 144.863 251.154C143.75 251.154 142.829 250.912 142.1 250.429C141.371 249.946 140.909 249.241 140.715 248.313L142.306 247.915C142.458 248.502 142.744 248.943 143.165 249.236C143.592 249.53 144.148 249.676 144.835 249.676C145.616 249.676 146.236 249.511 146.695 249.179C147.159 248.843 147.391 248.441 147.391 247.972C147.391 247.593 147.259 247.276 146.994 247.02C146.728 246.76 146.321 246.566 145.772 246.438L143.954 246.012C142.955 245.775 142.221 245.408 141.752 244.911C141.288 244.409 141.056 243.782 141.056 243.029C141.056 242.413 141.229 241.869 141.575 241.395C141.925 240.922 142.401 240.55 143.002 240.28C143.608 240.01 144.295 239.875 145.062 239.875C146.141 239.875 146.989 240.112 147.604 240.586C148.225 241.059 148.665 241.684 148.925 242.461ZM153.869 250.926L150.545 240.017H152.306L154.664 248.37H154.778L157.108 240.017H158.897L161.199 248.341H161.312L163.67 240.017H165.431L162.108 250.926H160.46L158.074 242.546H157.903L155.517 250.926H153.869ZM171.458 251.154C170.473 251.154 169.609 250.919 168.866 250.451C168.127 249.982 167.549 249.326 167.133 248.483C166.721 247.641 166.515 246.656 166.515 245.529C166.515 244.392 166.721 243.4 167.133 242.553C167.549 241.705 168.127 241.047 168.866 240.578C169.609 240.11 170.473 239.875 171.458 239.875C172.443 239.875 173.305 240.11 174.043 240.578C174.787 241.047 175.364 241.705 175.776 242.553C176.193 243.4 176.401 244.392 176.401 245.529C176.401 246.656 176.193 247.641 175.776 248.483C175.364 249.326 174.787 249.982 174.043 250.451C173.305 250.919 172.443 251.154 171.458 251.154ZM171.458 249.648C172.206 249.648 172.822 249.456 173.305 249.073C173.788 248.689 174.145 248.185 174.377 247.56C174.609 246.935 174.725 246.258 174.725 245.529C174.725 244.8 174.609 244.12 174.377 243.49C174.145 242.861 173.788 242.352 173.305 241.963C172.822 241.575 172.206 241.381 171.458 241.381C170.71 241.381 170.094 241.575 169.612 241.963C169.129 242.352 168.771 242.861 168.539 243.49C168.307 244.12 168.191 244.8 168.191 245.529C168.191 246.258 168.307 246.935 168.539 247.56C168.771 248.185 169.129 248.689 169.612 249.073C170.094 249.456 170.71 249.648 171.458 249.648ZM178.71 250.926V240.017H180.329V241.665H180.443C180.642 241.125 181.002 240.687 181.522 240.351C182.043 240.015 182.63 239.847 183.284 239.847C183.407 239.847 183.561 239.849 183.745 239.854C183.93 239.859 184.07 239.866 184.164 239.875V241.58C184.108 241.566 183.977 241.544 183.774 241.516C183.575 241.483 183.364 241.466 183.142 241.466C182.611 241.466 182.138 241.578 181.721 241.8C181.309 242.018 180.983 242.321 180.741 242.709C180.504 243.093 180.386 243.531 180.386 244.023V250.926H178.71ZM189.689 251.154C188.779 251.154 187.977 250.924 187.281 250.465C186.585 250.001 186.04 249.347 185.647 248.505C185.254 247.657 185.058 246.656 185.058 245.5C185.058 244.355 185.254 243.36 185.647 242.517C186.04 241.675 186.587 241.024 187.288 240.564C187.989 240.105 188.798 239.875 189.717 239.875C190.427 239.875 190.988 239.994 191.4 240.23C191.817 240.462 192.134 240.728 192.352 241.026C192.574 241.319 192.747 241.561 192.87 241.75H193.012V236.381H194.689V250.926H193.069V249.25H192.87C192.747 249.449 192.572 249.7 192.345 250.003C192.118 250.301 191.793 250.569 191.372 250.806C190.95 251.038 190.389 251.154 189.689 251.154ZM189.916 249.648C190.588 249.648 191.156 249.473 191.62 249.123C192.084 248.767 192.437 248.277 192.679 247.652C192.92 247.023 193.041 246.296 193.041 245.472C193.041 244.658 192.922 243.945 192.686 243.334C192.449 242.719 192.099 242.24 191.635 241.9C191.171 241.554 190.598 241.381 189.916 241.381C189.206 241.381 188.614 241.563 188.14 241.928C187.672 242.288 187.319 242.778 187.082 243.398C186.85 244.014 186.734 244.705 186.734 245.472C186.734 246.248 186.852 246.954 187.089 247.588C187.331 248.218 187.686 248.72 188.154 249.094C188.628 249.463 189.215 249.648 189.916 249.648Z" fill="#C9C9C9"/>
<rect x="91" y="289.201" width="360" height="40.7963" rx="16" fill="#F0FCF6"/>
<path d="M119.466 308.014H117.705C117.6 307.507 117.418 307.062 117.158 306.679C116.902 306.295 116.589 305.973 116.22 305.713C115.856 305.448 115.451 305.249 115.006 305.116C114.561 304.983 114.097 304.917 113.614 304.917C112.733 304.917 111.935 305.14 111.22 305.585C110.51 306.03 109.944 306.686 109.523 307.552C109.106 308.419 108.898 309.482 108.898 310.741C108.898 312.001 109.106 313.064 109.523 313.93C109.944 314.796 110.51 315.452 111.22 315.897C111.935 316.342 112.733 316.565 113.614 316.565C114.097 316.565 114.561 316.499 115.006 316.366C115.451 316.233 115.856 316.037 116.22 315.777C116.589 315.511 116.902 315.187 117.158 314.804C117.418 314.415 117.6 313.97 117.705 313.468H119.466C119.333 314.212 119.092 314.877 118.741 315.464C118.391 316.051 117.955 316.551 117.435 316.963C116.914 317.37 116.329 317.68 115.68 317.893C115.036 318.106 114.348 318.213 113.614 318.213C112.373 318.213 111.27 317.91 110.304 317.304C109.338 316.698 108.578 315.836 108.024 314.718C107.47 313.601 107.193 312.275 107.193 310.741C107.193 309.207 107.47 307.881 108.024 306.764C108.578 305.646 109.338 304.785 110.304 304.179C111.27 303.573 112.373 303.269 113.614 303.269C114.348 303.269 115.036 303.376 115.68 303.589C116.329 303.802 116.914 304.115 117.435 304.527C117.955 304.934 118.391 305.431 118.741 306.018C119.092 306.6 119.333 307.266 119.466 308.014ZM126.267 318.241C125.282 318.241 124.418 318.007 123.674 317.538C122.936 317.069 122.358 316.413 121.941 315.571C121.529 314.728 121.324 313.743 121.324 312.616C121.324 311.48 121.529 310.488 121.941 309.64C122.358 308.793 122.936 308.135 123.674 307.666C124.418 307.197 125.282 306.963 126.267 306.963C127.252 306.963 128.113 307.197 128.852 307.666C129.595 308.135 130.173 308.793 130.585 309.64C131.002 310.488 131.21 311.48 131.21 312.616C131.21 313.743 131.002 314.728 130.585 315.571C130.173 316.413 129.595 317.069 128.852 317.538C128.113 318.007 127.252 318.241 126.267 318.241ZM126.267 316.735C127.015 316.735 127.63 316.544 128.113 316.16C128.596 315.777 128.954 315.272 129.186 314.647C129.418 314.022 129.534 313.345 129.534 312.616C129.534 311.887 129.418 311.207 129.186 310.578C128.954 309.948 128.596 309.439 128.113 309.051C127.63 308.662 127.015 308.468 126.267 308.468C125.519 308.468 124.903 308.662 124.42 309.051C123.937 309.439 123.58 309.948 123.348 310.578C123.116 311.207 123 311.887 123 312.616C123 313.345 123.116 314.022 123.348 314.647C123.58 315.272 123.937 315.777 124.42 316.16C124.903 316.544 125.519 316.735 126.267 316.735ZM135.195 311.451V318.014H133.518V307.105H135.138V308.809H135.28C135.536 308.255 135.924 307.81 136.445 307.474C136.965 307.133 137.638 306.963 138.462 306.963C139.2 306.963 139.847 307.114 140.401 307.417C140.955 307.715 141.385 308.17 141.693 308.781C142.001 309.387 142.155 310.154 142.155 311.082V318.014H140.479V311.196C140.479 310.339 140.256 309.671 139.811 309.193C139.366 308.71 138.755 308.468 137.979 308.468C137.444 308.468 136.965 308.584 136.544 308.816C136.127 309.048 135.798 309.387 135.557 309.832C135.315 310.277 135.195 310.817 135.195 311.451ZM149.826 307.105V308.525H143.945V307.105H149.826ZM145.706 318.014V305.599C145.706 304.974 145.853 304.453 146.147 304.037C146.44 303.62 146.821 303.307 147.29 303.099C147.759 302.891 148.254 302.787 148.775 302.787C149.186 302.787 149.523 302.82 149.783 302.886C150.043 302.952 150.238 303.014 150.365 303.071L149.882 304.519C149.797 304.491 149.679 304.456 149.527 304.413C149.381 304.37 149.186 304.349 148.945 304.349C148.391 304.349 147.991 304.489 147.745 304.768C147.503 305.047 147.382 305.457 147.382 305.997V318.014H145.706ZM151.925 318.014V307.105H153.601V318.014H151.925ZM152.777 305.287C152.45 305.287 152.169 305.175 151.932 304.953C151.7 304.73 151.584 304.463 151.584 304.15C151.584 303.838 151.7 303.57 151.932 303.348C152.169 303.125 152.45 303.014 152.777 303.014C153.104 303.014 153.383 303.125 153.615 303.348C153.852 303.57 153.97 303.838 153.97 304.15C153.97 304.463 153.852 304.73 153.615 304.953C153.383 305.175 153.104 305.287 152.777 305.287ZM156.421 318.014V307.105H158.04V308.752H158.154C158.353 308.213 158.712 307.775 159.233 307.439C159.754 307.102 160.341 306.934 160.995 306.934C161.118 306.934 161.272 306.937 161.456 306.941C161.641 306.946 161.781 306.953 161.875 306.963V308.667C161.819 308.653 161.688 308.632 161.485 308.603C161.286 308.57 161.075 308.554 160.853 308.554C160.322 308.554 159.849 308.665 159.432 308.887C159.02 309.105 158.694 309.408 158.452 309.796C158.215 310.18 158.097 310.618 158.097 311.11V318.014H156.421ZM163.612 318.014V307.105H165.232V308.809H165.374C165.601 308.227 165.968 307.775 166.474 307.453C166.981 307.126 167.589 306.963 168.3 306.963C169.019 306.963 169.618 307.126 170.097 307.453C170.58 307.775 170.956 308.227 171.226 308.809H171.339C171.619 308.246 172.038 307.798 172.597 307.467C173.155 307.131 173.825 306.963 174.607 306.963C175.582 306.963 176.38 307.268 177 307.879C177.62 308.485 177.93 309.43 177.93 310.713V318.014H176.254V310.713C176.254 309.908 176.034 309.332 175.594 308.987C175.153 308.641 174.635 308.468 174.038 308.468C173.271 308.468 172.677 308.7 172.256 309.164C171.834 309.624 171.624 310.206 171.624 310.912V318.014H169.919V310.542C169.919 309.922 169.718 309.422 169.315 309.044C168.913 308.66 168.394 308.468 167.76 308.468C167.324 308.468 166.917 308.584 166.538 308.816C166.164 309.048 165.861 309.37 165.629 309.782C165.402 310.189 165.288 310.661 165.288 311.196V318.014H163.612ZM186.12 322.105V307.105H187.739V308.838H187.938C188.061 308.648 188.232 308.407 188.45 308.113C188.672 307.815 188.989 307.55 189.401 307.318C189.818 307.081 190.381 306.963 191.092 306.963C192.01 306.963 192.82 307.192 193.521 307.652C194.221 308.111 194.768 308.762 195.161 309.605C195.554 310.448 195.751 311.442 195.751 312.588C195.751 313.743 195.554 314.744 195.161 315.592C194.768 316.435 194.224 317.088 193.528 317.552C192.832 318.011 192.029 318.241 191.12 318.241C190.419 318.241 189.858 318.125 189.437 317.893C189.015 317.656 188.691 317.389 188.464 317.09C188.237 316.787 188.061 316.537 187.938 316.338H187.796V322.105H186.12ZM187.768 312.559C187.768 313.383 187.888 314.11 188.13 314.74C188.371 315.365 188.724 315.855 189.188 316.21C189.652 316.56 190.22 316.735 190.893 316.735C191.594 316.735 192.178 316.551 192.647 316.181C193.121 315.807 193.476 315.305 193.712 314.676C193.954 314.041 194.075 313.336 194.075 312.559C194.075 311.792 193.956 311.101 193.719 310.485C193.487 309.865 193.135 309.375 192.661 309.015C192.192 308.651 191.603 308.468 190.893 308.468C190.211 308.468 189.638 308.641 189.174 308.987C188.71 309.328 188.36 309.806 188.123 310.421C187.886 311.032 187.768 311.745 187.768 312.559ZM201.268 318.269C200.576 318.269 199.949 318.139 199.386 317.879C198.822 317.614 198.375 317.233 198.043 316.735C197.712 316.233 197.546 315.627 197.546 314.917C197.546 314.292 197.669 313.786 197.915 313.397C198.162 313.004 198.491 312.697 198.903 312.474C199.315 312.251 199.769 312.086 200.266 311.977C200.768 311.863 201.272 311.773 201.779 311.707C202.442 311.622 202.979 311.558 203.391 311.515C203.808 311.468 204.111 311.39 204.3 311.281C204.495 311.172 204.592 310.983 204.592 310.713V310.656C204.592 309.955 204.4 309.411 204.016 309.022C203.638 308.634 203.062 308.44 202.29 308.44C201.49 308.44 200.863 308.615 200.408 308.965C199.954 309.316 199.634 309.69 199.45 310.088L197.859 309.519C198.143 308.857 198.522 308.34 198.995 307.971C199.473 307.597 199.994 307.337 200.558 307.19C201.126 307.038 201.684 306.963 202.234 306.963C202.584 306.963 202.987 307.005 203.441 307.09C203.9 307.171 204.343 307.339 204.769 307.595C205.2 307.85 205.558 308.236 205.842 308.752C206.126 309.269 206.268 309.96 206.268 310.826V318.014H204.592V316.537H204.506C204.393 316.773 204.203 317.027 203.938 317.296C203.673 317.566 203.32 317.796 202.88 317.985C202.44 318.175 201.902 318.269 201.268 318.269ZM201.523 316.764C202.186 316.764 202.745 316.634 203.2 316.373C203.659 316.113 204.004 315.777 204.237 315.365C204.473 314.953 204.592 314.519 204.592 314.065V312.531C204.521 312.616 204.364 312.694 204.123 312.765C203.886 312.832 203.612 312.891 203.299 312.943C202.991 312.99 202.691 313.033 202.397 313.071C202.108 313.104 201.874 313.132 201.694 313.156C201.258 313.213 200.851 313.305 200.472 313.433C200.098 313.556 199.795 313.743 199.563 313.994C199.336 314.24 199.222 314.576 199.222 315.002C199.222 315.585 199.438 316.025 199.869 316.323C200.304 316.617 200.856 316.764 201.523 316.764ZM216.804 309.548L215.299 309.974C215.204 309.723 215.064 309.479 214.88 309.242C214.7 309.001 214.453 308.802 214.141 308.646C213.828 308.49 213.428 308.412 212.941 308.412C212.273 308.412 211.717 308.565 211.272 308.873C210.831 309.176 210.611 309.562 210.611 310.031C210.611 310.448 210.763 310.777 211.066 311.018C211.369 311.26 211.842 311.461 212.486 311.622L214.105 312.019C215.081 312.256 215.808 312.618 216.286 313.106C216.764 313.589 217.003 314.212 217.003 314.974C217.003 315.599 216.823 316.158 216.463 316.65C216.108 317.143 215.611 317.531 214.972 317.815C214.333 318.099 213.589 318.241 212.742 318.241C211.629 318.241 210.708 318 209.979 317.517C209.25 317.034 208.788 316.328 208.594 315.4L210.185 315.002C210.337 315.59 210.623 316.03 211.044 316.323C211.471 316.617 212.027 316.764 212.713 316.764C213.495 316.764 214.115 316.598 214.574 316.267C215.038 315.93 215.27 315.528 215.27 315.059C215.27 314.68 215.138 314.363 214.873 314.108C214.607 313.847 214.2 313.653 213.651 313.525L211.833 313.099C210.834 312.862 210.1 312.495 209.631 311.998C209.167 311.496 208.935 310.869 208.935 310.116C208.935 309.501 209.108 308.956 209.453 308.483C209.804 308.009 210.28 307.637 210.881 307.367C211.487 307.098 212.174 306.963 212.941 306.963C214.02 306.963 214.868 307.199 215.483 307.673C216.104 308.146 216.544 308.771 216.804 309.548ZM227.004 309.548L225.498 309.974C225.403 309.723 225.263 309.479 225.079 309.242C224.899 309.001 224.653 308.802 224.34 308.646C224.028 308.49 223.628 308.412 223.14 308.412C222.472 308.412 221.916 308.565 221.471 308.873C221.031 309.176 220.81 309.562 220.81 310.031C220.81 310.448 220.962 310.777 221.265 311.018C221.568 311.26 222.041 311.461 222.685 311.622L224.305 312.019C225.28 312.256 226.007 312.618 226.485 313.106C226.963 313.589 227.202 314.212 227.202 314.974C227.202 315.599 227.022 316.158 226.663 316.65C226.308 317.143 225.81 317.531 225.171 317.815C224.532 318.099 223.789 318.241 222.941 318.241C221.828 318.241 220.907 318 220.178 317.517C219.449 317.034 218.987 316.328 218.793 315.4L220.384 315.002C220.536 315.59 220.822 316.03 221.244 316.323C221.67 316.617 222.226 316.764 222.913 316.764C223.694 316.764 224.314 316.598 224.773 316.267C225.237 315.93 225.469 315.528 225.469 315.059C225.469 314.68 225.337 314.363 225.072 314.108C224.807 313.847 224.399 313.653 223.85 313.525L222.032 313.099C221.033 312.862 220.299 312.495 219.83 311.998C219.366 311.496 219.134 310.869 219.134 310.116C219.134 309.501 219.307 308.956 219.653 308.483C220.003 308.009 220.479 307.637 221.08 307.367C221.686 307.098 222.373 306.963 223.14 306.963C224.219 306.963 225.067 307.199 225.683 307.673C226.303 308.146 226.743 308.771 227.004 309.548ZM231.947 318.014L228.623 307.105H230.385L232.743 315.457H232.856L235.186 307.105H236.975L239.277 315.429H239.39L241.748 307.105H243.51L240.186 318.014H238.538L236.152 309.633H235.981L233.595 318.014H231.947ZM249.536 318.241C248.551 318.241 247.687 318.007 246.944 317.538C246.205 317.069 245.628 316.413 245.211 315.571C244.799 314.728 244.593 313.743 244.593 312.616C244.593 311.48 244.799 310.488 245.211 309.64C245.628 308.793 246.205 308.135 246.944 307.666C247.687 307.197 248.551 306.963 249.536 306.963C250.521 306.963 251.383 307.197 252.121 307.666C252.865 308.135 253.442 308.793 253.854 309.64C254.271 310.488 254.479 311.48 254.479 312.616C254.479 313.743 254.271 314.728 253.854 315.571C253.442 316.413 252.865 317.069 252.121 317.538C251.383 318.007 250.521 318.241 249.536 318.241ZM249.536 316.735C250.284 316.735 250.9 316.544 251.383 316.16C251.866 315.777 252.223 315.272 252.455 314.647C252.687 314.022 252.803 313.345 252.803 312.616C252.803 311.887 252.687 311.207 252.455 310.578C252.223 309.948 251.866 309.439 251.383 309.051C250.9 308.662 250.284 308.468 249.536 308.468C248.788 308.468 248.173 308.662 247.69 309.051C247.207 309.439 246.849 309.948 246.617 310.578C246.385 311.207 246.269 311.887 246.269 312.616C246.269 313.345 246.385 314.022 246.617 314.647C246.849 315.272 247.207 315.777 247.69 316.16C248.173 316.544 248.788 316.735 249.536 316.735ZM256.788 318.014V307.105H258.407V308.752H258.521C258.72 308.213 259.08 307.775 259.6 307.439C260.121 307.102 260.708 306.934 261.362 306.934C261.485 306.934 261.639 306.937 261.824 306.941C262.008 306.946 262.148 306.953 262.243 306.963V308.667C262.186 308.653 262.056 308.632 261.852 308.603C261.653 308.57 261.442 308.554 261.22 308.554C260.69 308.554 260.216 308.665 259.799 308.887C259.387 309.105 259.061 309.408 258.819 309.796C258.583 310.18 258.464 310.618 258.464 311.11V318.014H256.788ZM267.767 318.241C266.858 318.241 266.055 318.011 265.359 317.552C264.663 317.088 264.118 316.435 263.725 315.592C263.333 314.744 263.136 313.743 263.136 312.588C263.136 311.442 263.333 310.448 263.725 309.605C264.118 308.762 264.665 308.111 265.366 307.652C266.067 307.192 266.877 306.963 267.795 306.963C268.505 306.963 269.066 307.081 269.478 307.318C269.895 307.55 270.212 307.815 270.43 308.113C270.653 308.407 270.825 308.648 270.949 308.838H271.091V303.468H272.767V318.014H271.147V316.338H270.949C270.825 316.537 270.65 316.787 270.423 317.09C270.196 317.389 269.871 317.656 269.45 317.893C269.029 318.125 268.467 318.241 267.767 318.241ZM267.994 316.735C268.666 316.735 269.234 316.56 269.699 316.21C270.163 315.855 270.515 315.365 270.757 314.74C270.998 314.11 271.119 313.383 271.119 312.559C271.119 311.745 271.001 311.032 270.764 310.421C270.527 309.806 270.177 309.328 269.713 308.987C269.249 308.641 268.676 308.468 267.994 308.468C267.284 308.468 266.692 308.651 266.218 309.015C265.75 309.375 265.397 309.865 265.16 310.485C264.928 311.101 264.812 311.792 264.812 312.559C264.812 313.336 264.931 314.041 265.167 314.676C265.409 315.305 265.764 315.807 266.233 316.181C266.706 316.551 267.293 316.735 267.994 316.735Z" fill="#C9C9C9"/>
<rect x="177" y="400.711" width="189" height="41.7029" rx="10" fill="#29B362"/>
<path d="M243.589 419.521C243.504 418.802 243.158 418.243 242.552 417.845C241.946 417.447 241.203 417.249 240.322 417.249C239.678 417.249 239.115 417.353 238.632 417.561C238.153 417.769 237.779 418.056 237.509 418.42C237.244 418.785 237.112 419.199 237.112 419.663C237.112 420.052 237.204 420.385 237.389 420.665C237.578 420.939 237.82 421.169 238.113 421.354C238.407 421.534 238.714 421.683 239.036 421.801C239.358 421.915 239.654 422.007 239.924 422.078L241.401 422.476C241.78 422.575 242.202 422.713 242.666 422.888C243.134 423.063 243.582 423.302 244.008 423.605C244.439 423.903 244.794 424.287 245.073 424.756C245.353 425.224 245.492 425.8 245.492 426.481C245.492 427.267 245.286 427.978 244.874 428.612C244.467 429.247 243.871 429.751 243.085 430.125C242.303 430.499 241.354 430.686 240.237 430.686C239.195 430.686 238.293 430.518 237.531 430.182C236.773 429.846 236.177 429.377 235.741 428.775C235.31 428.174 235.066 427.476 235.009 426.68H236.828C236.875 427.23 237.06 427.684 237.382 428.044C237.708 428.399 238.12 428.664 238.617 428.839C239.119 429.01 239.659 429.095 240.237 429.095C240.909 429.095 241.513 428.986 242.048 428.768C242.583 428.546 243.007 428.238 243.319 427.845C243.632 427.447 243.788 426.983 243.788 426.453C243.788 425.97 243.653 425.577 243.383 425.274C243.113 424.971 242.758 424.725 242.318 424.535C241.877 424.346 241.401 424.18 240.89 424.038L239.1 423.527C237.964 423.2 237.064 422.734 236.401 422.128C235.739 421.522 235.407 420.729 235.407 419.749C235.407 418.934 235.627 418.224 236.068 417.618C236.513 417.007 237.109 416.534 237.857 416.197C238.61 415.856 239.451 415.686 240.379 415.686C241.316 415.686 242.15 415.854 242.879 416.19C243.608 416.522 244.186 416.976 244.612 417.554C245.043 418.132 245.27 418.787 245.294 419.521H243.589ZM257.684 415.885H259.445V425.516C259.445 426.51 259.211 427.398 258.742 428.179C258.278 428.955 257.622 429.569 256.775 430.018C255.927 430.463 254.933 430.686 253.792 430.686C252.651 430.686 251.656 430.463 250.809 430.018C249.961 429.569 249.303 428.955 248.834 428.179C248.37 427.398 248.138 426.51 248.138 425.516V415.885H249.9V425.374C249.9 426.084 250.056 426.716 250.368 427.27C250.681 427.819 251.126 428.252 251.704 428.57C252.286 428.882 252.982 429.038 253.792 429.038C254.601 429.038 255.297 428.882 255.88 428.57C256.462 428.252 256.907 427.819 257.215 427.27C257.528 426.716 257.684 426.084 257.684 425.374V415.885ZM262.713 430.43V415.885H267.798C268.811 415.885 269.647 416.06 270.305 416.41C270.963 416.756 271.453 417.222 271.775 417.81C272.097 418.392 272.258 419.038 272.258 419.749C272.258 420.374 272.147 420.89 271.924 421.297C271.706 421.704 271.418 422.026 271.058 422.263C270.703 422.499 270.317 422.675 269.9 422.788V422.93C270.345 422.959 270.793 423.115 271.242 423.399C271.692 423.683 272.069 424.09 272.372 424.621C272.675 425.151 272.826 425.8 272.826 426.567C272.826 427.296 272.66 427.952 272.329 428.534C271.998 429.116 271.474 429.578 270.759 429.919C270.044 430.26 269.114 430.43 267.968 430.43H262.713ZM264.474 428.868H267.968C269.119 428.868 269.936 428.645 270.419 428.2C270.906 427.75 271.15 427.206 271.15 426.567C271.15 426.074 271.025 425.62 270.774 425.203C270.523 424.782 270.165 424.445 269.701 424.195C269.237 423.939 268.688 423.811 268.053 423.811H264.474V428.868ZM264.474 422.277H267.741C268.271 422.277 268.749 422.173 269.176 421.964C269.606 421.756 269.947 421.463 270.198 421.084C270.454 420.705 270.582 420.26 270.582 419.749C270.582 419.109 270.359 418.567 269.914 418.122C269.469 417.672 268.764 417.447 267.798 417.447H264.474V422.277ZM275.47 415.885H277.573L282.516 427.959H282.686L287.629 415.885H289.732V430.43H288.084V419.379H287.942L283.396 430.43H281.806L277.26 419.379H277.118V430.43H275.47V415.885ZM294.775 415.885V430.43H293.013V415.885H294.775ZM297.261 417.447V415.885H308.17V417.447H303.596V430.43H301.835V417.447H297.261Z" fill="white"/>
<path d="M287.2 467.479V457.298H290.64C291.436 457.298 292.088 457.433 292.599 457.705C293.109 457.974 293.487 458.343 293.732 458.814C293.978 459.285 294.1 459.82 294.1 460.42C294.1 461.02 293.978 461.552 293.732 462.016C293.487 462.48 293.111 462.844 292.604 463.109C292.097 463.371 291.449 463.502 290.66 463.502H287.876V462.388H290.62C291.164 462.388 291.601 462.309 291.933 462.15C292.267 461.991 292.509 461.765 292.659 461.474C292.811 461.179 292.887 460.827 292.887 460.42C292.887 460.012 292.811 459.656 292.659 459.351C292.506 459.046 292.262 458.811 291.928 458.645C291.593 458.476 291.151 458.391 290.6 458.391H288.433V467.479H287.2ZM291.992 462.905L294.498 467.479H293.066L290.6 462.905H291.992ZM298.865 467.638C298.13 467.638 297.495 467.476 296.961 467.151C296.431 466.823 296.022 466.366 295.733 465.779C295.448 465.189 295.306 464.503 295.306 463.721C295.306 462.939 295.448 462.249 295.733 461.653C296.022 461.053 296.423 460.585 296.936 460.251C297.453 459.913 298.057 459.744 298.746 459.744C299.144 459.744 299.537 459.81 299.924 459.942C300.312 460.075 300.665 460.29 300.983 460.589C301.301 460.884 301.555 461.275 301.744 461.762C301.933 462.249 302.027 462.849 302.027 463.562V464.059H296.141V463.045H300.834C300.834 462.614 300.748 462.229 300.576 461.891C300.407 461.553 300.165 461.286 299.85 461.091C299.538 460.895 299.17 460.798 298.746 460.798C298.279 460.798 297.874 460.914 297.533 461.146C297.195 461.374 296.935 461.673 296.752 462.04C296.57 462.408 296.479 462.803 296.479 463.224V463.9C296.479 464.476 296.578 464.965 296.777 465.366C296.98 465.764 297.26 466.067 297.618 466.276C297.975 466.482 298.391 466.584 298.865 466.584C299.174 466.584 299.452 466.541 299.701 466.455C299.953 466.366 300.17 466.233 300.352 466.057C300.534 465.878 300.675 465.656 300.775 465.391L301.908 465.709C301.789 466.094 301.588 466.432 301.306 466.724C301.025 467.012 300.677 467.237 300.262 467.4C299.848 467.559 299.382 467.638 298.865 467.638ZM306.645 470.502C306.078 470.502 305.591 470.429 305.183 470.283C304.775 470.141 304.435 469.952 304.164 469.717C303.895 469.485 303.681 469.236 303.522 468.971L304.457 468.315C304.563 468.454 304.697 468.613 304.86 468.792C305.022 468.974 305.244 469.132 305.526 469.264C305.811 469.4 306.184 469.468 306.645 469.468C307.261 469.468 307.77 469.319 308.171 469.021C308.572 468.722 308.772 468.255 308.772 467.619V466.067H308.673C308.587 466.207 308.464 466.379 308.305 466.584C308.149 466.787 307.924 466.967 307.629 467.126C307.337 467.282 306.943 467.36 306.446 467.36C305.829 467.36 305.276 467.214 304.785 466.923C304.298 466.631 303.912 466.207 303.627 465.65C303.345 465.093 303.204 464.417 303.204 463.621C303.204 462.839 303.342 462.158 303.617 461.578C303.892 460.995 304.275 460.544 304.765 460.226C305.256 459.904 305.823 459.744 306.466 459.744C306.963 459.744 307.357 459.826 307.649 459.992C307.944 460.155 308.169 460.34 308.325 460.549C308.484 460.754 308.607 460.923 308.693 461.056H308.812V459.843H309.946V467.698C309.946 468.354 309.797 468.888 309.498 469.299C309.203 469.713 308.806 470.017 308.305 470.209C307.808 470.404 307.254 470.502 306.645 470.502ZM306.605 466.306C307.075 466.306 307.473 466.198 307.798 465.983C308.123 465.767 308.37 465.458 308.539 465.053C308.708 464.649 308.792 464.165 308.792 463.601C308.792 463.051 308.709 462.566 308.544 462.145C308.378 461.724 308.133 461.394 307.808 461.155C307.483 460.917 307.082 460.798 306.605 460.798C306.108 460.798 305.693 460.923 305.362 461.175C305.034 461.427 304.787 461.765 304.621 462.19C304.459 462.614 304.377 463.084 304.377 463.601C304.377 464.132 304.46 464.601 304.626 465.008C304.795 465.413 305.044 465.731 305.372 465.963C305.703 466.192 306.114 466.306 306.605 466.306ZM311.843 467.479V459.843H313.017V467.479H311.843ZM312.44 458.57C312.211 458.57 312.014 458.492 311.848 458.337C311.686 458.181 311.605 457.994 311.605 457.775C311.605 457.556 311.686 457.369 311.848 457.213C312.014 457.057 312.211 456.979 312.44 456.979C312.669 456.979 312.864 457.057 313.027 457.213C313.192 457.369 313.275 457.556 313.275 457.775C313.275 457.994 313.192 458.181 313.027 458.337C312.864 458.492 312.669 458.57 312.44 458.57ZM320.325 461.553L319.271 461.851C319.204 461.676 319.107 461.505 318.977 461.339C318.852 461.17 318.679 461.031 318.46 460.922C318.242 460.812 317.962 460.758 317.62 460.758C317.153 460.758 316.763 460.865 316.452 461.081C316.144 461.293 315.99 461.563 315.99 461.891C315.99 462.183 316.096 462.413 316.308 462.582C316.52 462.751 316.851 462.892 317.302 463.005L318.436 463.283C319.118 463.449 319.627 463.703 319.962 464.044C320.297 464.382 320.464 464.818 320.464 465.351C320.464 465.789 320.338 466.18 320.086 466.525C319.838 466.869 319.49 467.141 319.042 467.34C318.595 467.539 318.074 467.638 317.481 467.638C316.702 467.638 316.057 467.469 315.547 467.131C315.037 466.793 314.713 466.299 314.578 465.65L315.691 465.371C315.797 465.782 315.998 466.091 316.293 466.296C316.591 466.502 316.981 466.604 317.461 466.604C318.008 466.604 318.442 466.488 318.764 466.256C319.088 466.021 319.251 465.739 319.251 465.411C319.251 465.146 319.158 464.924 318.972 464.745C318.787 464.563 318.502 464.427 318.117 464.337L316.845 464.039C316.145 463.873 315.632 463.616 315.303 463.268C314.979 462.917 314.816 462.478 314.816 461.951C314.816 461.52 314.937 461.139 315.179 460.807C315.424 460.476 315.758 460.216 316.178 460.027C316.603 459.838 317.083 459.744 317.62 459.744C318.376 459.744 318.969 459.909 319.4 460.241C319.834 460.572 320.142 461.01 320.325 461.553ZM325.301 459.843V460.837H321.344V459.843H325.301ZM322.497 458.013H323.67V465.292C323.67 465.623 323.719 465.872 323.815 466.038C323.914 466.2 324.04 466.309 324.192 466.366C324.348 466.419 324.512 466.445 324.685 466.445C324.814 466.445 324.92 466.439 325.003 466.425C325.086 466.409 325.152 466.396 325.202 466.386L325.44 467.44C325.361 467.469 325.25 467.499 325.107 467.529C324.965 467.562 324.784 467.579 324.565 467.579C324.234 467.579 323.909 467.508 323.591 467.365C323.276 467.222 323.014 467.005 322.805 466.714C322.6 466.422 322.497 466.054 322.497 465.61V458.013ZM329.936 467.638C329.2 467.638 328.565 467.476 328.032 467.151C327.501 466.823 327.092 466.366 326.804 465.779C326.519 465.189 326.376 464.503 326.376 463.721C326.376 462.939 326.519 462.249 326.804 461.653C327.092 461.053 327.493 460.585 328.007 460.251C328.524 459.913 329.127 459.744 329.816 459.744C330.214 459.744 330.607 459.81 330.995 459.942C331.382 460.075 331.735 460.29 332.054 460.589C332.372 460.884 332.625 461.275 332.814 461.762C333.003 462.249 333.098 462.849 333.098 463.562V464.059H327.211V463.045H331.904C331.904 462.614 331.818 462.229 331.646 461.891C331.477 461.553 331.235 461.286 330.92 461.091C330.609 460.895 330.241 460.798 329.816 460.798C329.349 460.798 328.945 460.914 328.603 461.146C328.265 461.374 328.005 461.673 327.823 462.04C327.641 462.408 327.549 462.803 327.549 463.224V463.9C327.549 464.476 327.649 464.965 327.848 465.366C328.05 465.764 328.33 466.067 328.688 466.276C329.046 466.482 329.462 466.584 329.936 466.584C330.244 466.584 330.522 466.541 330.771 466.455C331.023 466.366 331.24 466.233 331.422 466.057C331.605 465.878 331.745 465.656 331.845 465.391L332.978 465.709C332.859 466.094 332.658 466.432 332.377 466.724C332.095 467.012 331.747 467.237 331.333 467.4C330.918 467.559 330.453 467.638 329.936 467.638ZM334.632 467.479V459.843H335.766V460.996H335.846C335.985 460.619 336.237 460.312 336.601 460.077C336.966 459.841 337.377 459.724 337.834 459.724C337.92 459.724 338.028 459.725 338.157 459.729C338.287 459.732 338.384 459.737 338.451 459.744V460.937C338.411 460.927 338.32 460.912 338.177 460.892C338.038 460.869 337.891 460.857 337.735 460.857C337.364 460.857 337.032 460.935 336.74 461.091C336.452 461.243 336.223 461.455 336.054 461.727C335.889 461.996 335.806 462.302 335.806 462.647V467.479H334.632ZM344.452 462.886V467.479H343.279V457.298H344.452V461.036H344.552C344.731 460.642 344.999 460.329 345.357 460.097C345.718 459.861 346.199 459.744 346.799 459.744C347.319 459.744 347.775 459.848 348.166 460.057C348.557 460.262 348.86 460.579 349.076 461.006C349.295 461.431 349.404 461.971 349.404 462.627V467.479H348.231V462.707C348.231 462.1 348.073 461.631 347.758 461.3C347.447 460.965 347.014 460.798 346.461 460.798C346.076 460.798 345.732 460.879 345.427 461.041C345.125 461.204 344.886 461.441 344.711 461.752C344.538 462.064 344.452 462.441 344.452 462.886ZM354.502 467.638C353.766 467.638 353.132 467.476 352.598 467.151C352.068 466.823 351.658 466.366 351.37 465.779C351.085 465.189 350.942 464.503 350.942 463.721C350.942 462.939 351.085 462.249 351.37 461.653C351.658 461.053 352.059 460.585 352.573 460.251C353.09 459.913 353.693 459.744 354.383 459.744C354.781 459.744 355.173 459.81 355.561 459.942C355.949 460.075 356.302 460.29 356.62 460.589C356.938 460.884 357.192 461.275 357.381 461.762C357.57 462.249 357.664 462.849 357.664 463.562V464.059H351.778V463.045H356.471C356.471 462.614 356.385 462.229 356.212 461.891C356.043 461.553 355.801 461.286 355.487 461.091C355.175 460.895 354.807 460.798 354.383 460.798C353.915 460.798 353.511 460.914 353.17 461.146C352.832 461.374 352.571 461.673 352.389 462.04C352.207 462.408 352.116 462.803 352.116 463.224V463.9C352.116 464.476 352.215 464.965 352.414 465.366C352.616 465.764 352.896 466.067 353.254 466.276C353.612 466.482 354.028 466.584 354.502 466.584C354.81 466.584 355.089 466.541 355.337 466.455C355.589 466.366 355.806 466.233 355.989 466.057C356.171 465.878 356.312 465.656 356.411 465.391L357.545 465.709C357.425 466.094 357.225 466.432 356.943 466.724C356.661 467.012 356.313 467.237 355.899 467.4C355.485 467.559 355.019 467.638 354.502 467.638ZM359.199 467.479V459.843H360.332V460.996H360.412C360.551 460.619 360.803 460.312 361.168 460.077C361.532 459.841 361.943 459.724 362.401 459.724C362.487 459.724 362.594 459.725 362.724 459.729C362.853 459.732 362.951 459.737 363.017 459.744V460.937C362.977 460.927 362.886 460.912 362.744 460.892C362.604 460.869 362.457 460.857 362.301 460.857C361.93 460.857 361.598 460.935 361.307 461.091C361.018 461.243 360.79 461.455 360.621 461.727C360.455 461.996 360.372 462.302 360.372 462.647V467.479H359.199ZM367.127 467.638C366.391 467.638 365.757 467.476 365.223 467.151C364.693 466.823 364.283 466.366 363.995 465.779C363.71 465.189 363.567 464.503 363.567 463.721C363.567 462.939 363.71 462.249 363.995 461.653C364.283 461.053 364.684 460.585 365.198 460.251C365.715 459.913 366.318 459.744 367.008 459.744C367.406 459.744 367.798 459.81 368.186 459.942C368.574 460.075 368.927 460.29 369.245 460.589C369.563 460.884 369.817 461.275 370.006 461.762C370.195 462.249 370.289 462.849 370.289 463.562V464.059H364.403V463.045H369.096C369.096 462.614 369.01 462.229 368.837 461.891C368.668 461.553 368.426 461.286 368.112 461.091C367.8 460.895 367.432 460.798 367.008 460.798C366.54 460.798 366.136 460.914 365.795 461.146C365.457 461.374 365.196 461.673 365.014 462.04C364.832 462.408 364.741 462.803 364.741 463.224V463.9C364.741 464.476 364.84 464.965 365.039 465.366C365.241 465.764 365.521 466.067 365.879 466.276C366.237 466.482 366.653 466.584 367.127 466.584C367.435 466.584 367.714 466.541 367.962 466.455C368.214 466.366 368.431 466.233 368.614 466.057C368.796 465.878 368.937 465.656 369.036 465.391L370.17 465.709C370.05 466.094 369.85 466.432 369.568 466.724C369.286 467.012 368.938 467.237 368.524 467.4C368.11 467.559 367.644 467.638 367.127 467.638Z" fill="#29A5EA"/>
<path d="M285.967 470.263H371.005V471.218H285.967V470.263Z" fill="#29A5EA"/>
<path d="M172.307 457.298V467.479H171.114L165.565 459.485H165.466V467.479H164.233V457.298H165.426L170.994 465.312H171.094V457.298H172.307ZM177.467 467.638C176.778 467.638 176.173 467.474 175.653 467.146C175.135 466.818 174.731 466.359 174.439 465.769C174.151 465.179 174.007 464.49 174.007 463.701C174.007 462.905 174.151 462.211 174.439 461.618C174.731 461.025 175.135 460.564 175.653 460.236C176.173 459.908 176.778 459.744 177.467 459.744C178.157 459.744 178.76 459.908 179.277 460.236C179.797 460.564 180.202 461.025 180.49 461.618C180.782 462.211 180.927 462.905 180.927 463.701C180.927 464.49 180.782 465.179 180.49 465.769C180.202 466.359 179.797 466.818 179.277 467.146C178.76 467.474 178.157 467.638 177.467 467.638ZM177.467 466.584C177.991 466.584 178.422 466.45 178.76 466.182C179.098 465.913 179.348 465.56 179.51 465.123C179.673 464.685 179.754 464.211 179.754 463.701C179.754 463.191 179.673 462.715 179.51 462.274C179.348 461.833 179.098 461.477 178.76 461.205C178.422 460.933 177.991 460.798 177.467 460.798C176.943 460.798 176.513 460.933 176.175 461.205C175.836 461.477 175.586 461.833 175.424 462.274C175.261 462.715 175.18 463.191 175.18 463.701C175.18 464.211 175.261 464.685 175.424 465.123C175.586 465.56 175.836 465.913 176.175 466.182C176.513 466.45 176.943 466.584 177.467 466.584ZM185.789 459.843V460.837H181.832V459.843H185.789ZM182.985 458.013H184.159V465.292C184.159 465.623 184.207 465.872 184.303 466.038C184.402 466.2 184.528 466.309 184.681 466.366C184.837 466.419 185.001 466.445 185.173 466.445C185.302 466.445 185.408 466.439 185.491 466.425C185.574 466.409 185.64 466.396 185.69 466.386L185.929 467.44C185.849 467.469 185.738 467.499 185.596 467.529C185.453 467.562 185.272 467.579 185.054 467.579C184.722 467.579 184.397 467.508 184.079 467.365C183.764 467.222 183.502 467.005 183.294 466.714C183.088 466.422 182.985 466.054 182.985 465.61V458.013ZM192.165 462.886V467.479H190.992V457.298H192.165V461.036H192.265C192.444 460.642 192.712 460.329 193.07 460.097C193.431 459.861 193.912 459.744 194.512 459.744C195.032 459.744 195.488 459.848 195.879 460.057C196.27 460.262 196.573 460.579 196.789 461.006C197.007 461.431 197.117 461.971 197.117 462.627V467.479H195.944V462.707C195.944 462.1 195.786 461.631 195.471 461.3C195.16 460.965 194.727 460.798 194.174 460.798C193.789 460.798 193.444 460.879 193.14 461.041C192.838 461.204 192.599 461.441 192.424 461.752C192.251 462.064 192.165 462.441 192.165 462.886ZM201.26 467.658C200.777 467.658 200.337 467.567 199.943 467.385C199.549 467.199 199.235 466.932 199.003 466.584C198.771 466.233 198.655 465.809 198.655 465.312C198.655 464.874 198.742 464.52 198.914 464.248C199.086 463.973 199.317 463.757 199.605 463.601C199.893 463.446 200.211 463.33 200.559 463.253C200.911 463.174 201.264 463.111 201.618 463.065C202.082 463.005 202.459 462.96 202.747 462.93C203.039 462.897 203.251 462.843 203.383 462.766C203.519 462.69 203.587 462.557 203.587 462.369V462.329C203.587 461.838 203.453 461.457 203.184 461.185C202.919 460.914 202.517 460.778 201.976 460.778C201.416 460.778 200.977 460.9 200.659 461.146C200.341 461.391 200.117 461.653 199.988 461.931L198.874 461.533C199.073 461.069 199.338 460.708 199.67 460.45C200.004 460.188 200.369 460.005 200.763 459.903C201.161 459.797 201.552 459.744 201.937 459.744C202.182 459.744 202.464 459.773 202.782 459.833C203.103 459.889 203.413 460.007 203.711 460.186C204.013 460.365 204.263 460.635 204.462 460.996C204.661 461.358 204.76 461.842 204.76 462.448V467.479H203.587V466.445H203.528C203.448 466.611 203.315 466.788 203.13 466.977C202.944 467.166 202.697 467.327 202.389 467.459C202.081 467.592 201.705 467.658 201.26 467.658ZM201.439 466.604C201.903 466.604 202.295 466.513 202.613 466.331C202.934 466.149 203.176 465.913 203.339 465.625C203.504 465.337 203.587 465.033 203.587 464.715V463.641C203.537 463.701 203.428 463.756 203.259 463.805C203.093 463.852 202.901 463.893 202.682 463.93C202.467 463.963 202.256 463.993 202.051 464.019C201.849 464.042 201.685 464.062 201.559 464.079C201.254 464.119 200.969 464.183 200.704 464.273C200.442 464.359 200.23 464.49 200.067 464.665C199.908 464.838 199.829 465.073 199.829 465.371C199.829 465.779 199.979 466.087 200.281 466.296C200.586 466.502 200.972 466.604 201.439 466.604ZM212.623 459.843L209.799 467.479H208.606L205.782 459.843H207.055L209.163 465.928H209.242L211.35 459.843H212.623ZM216.85 467.638C216.114 467.638 215.479 467.476 214.946 467.151C214.415 466.823 214.006 466.366 213.718 465.779C213.433 465.189 213.29 464.503 213.29 463.721C213.29 462.939 213.433 462.249 213.718 461.653C214.006 461.053 214.407 460.585 214.921 460.251C215.438 459.913 216.041 459.744 216.73 459.744C217.128 459.744 217.521 459.81 217.909 459.942C218.297 460.075 218.65 460.29 218.968 460.589C219.286 460.884 219.539 461.275 219.728 461.762C219.917 462.249 220.012 462.849 220.012 463.562V464.059H214.125V463.045H218.819C218.819 462.614 218.732 462.229 218.56 461.891C218.391 461.553 218.149 461.286 217.834 461.091C217.523 460.895 217.155 460.798 216.73 460.798C216.263 460.798 215.859 460.914 215.517 461.146C215.179 461.374 214.919 461.673 214.737 462.04C214.555 462.408 214.463 462.803 214.463 463.224V463.9C214.463 464.476 214.563 464.965 214.762 465.366C214.964 465.764 215.244 466.067 215.602 466.276C215.96 466.482 216.376 466.584 216.85 466.584C217.158 466.584 217.436 466.541 217.685 466.455C217.937 466.366 218.154 466.233 218.336 466.057C218.519 465.878 218.659 465.656 218.759 465.391L219.892 465.709C219.773 466.094 219.573 466.432 219.291 466.724C219.009 467.012 218.661 467.237 218.247 467.4C217.833 467.559 217.367 467.638 216.85 467.638ZM227.481 467.658C226.997 467.658 226.558 467.567 226.164 467.385C225.769 467.199 225.456 466.932 225.224 466.584C224.992 466.233 224.876 465.809 224.876 465.312C224.876 464.874 224.962 464.52 225.135 464.248C225.307 463.973 225.537 463.757 225.826 463.601C226.114 463.446 226.432 463.33 226.78 463.253C227.132 463.174 227.484 463.111 227.839 463.065C228.303 463.005 228.679 462.96 228.968 462.93C229.259 462.897 229.471 462.843 229.604 462.766C229.74 462.69 229.808 462.557 229.808 462.369V462.329C229.808 461.838 229.674 461.457 229.405 461.185C229.14 460.914 228.737 460.778 228.197 460.778C227.637 460.778 227.198 460.9 226.88 461.146C226.561 461.391 226.338 461.653 226.208 461.931L225.095 461.533C225.294 461.069 225.559 460.708 225.89 460.45C226.225 460.188 226.59 460.005 226.984 459.903C227.382 459.797 227.773 459.744 228.157 459.744C228.403 459.744 228.684 459.773 229.002 459.833C229.324 459.889 229.634 460.007 229.932 460.186C230.234 460.365 230.484 460.635 230.683 460.996C230.882 461.358 230.981 461.842 230.981 462.448V467.479H229.808V466.445H229.748C229.669 466.611 229.536 466.788 229.35 466.977C229.165 467.166 228.918 467.327 228.61 467.459C228.301 467.592 227.925 467.658 227.481 467.658ZM227.66 466.604C228.124 466.604 228.515 466.513 228.833 466.331C229.155 466.149 229.397 465.913 229.559 465.625C229.725 465.337 229.808 465.033 229.808 464.715V463.641C229.758 463.701 229.649 463.756 229.48 463.805C229.314 463.852 229.122 463.893 228.903 463.93C228.688 463.963 228.477 463.993 228.272 464.019C228.069 464.042 227.905 464.062 227.779 464.079C227.475 464.119 227.19 464.183 226.924 464.273C226.663 464.359 226.45 464.49 226.288 464.665C226.129 464.838 226.049 465.073 226.049 465.371C226.049 465.779 226.2 466.087 226.502 466.296C226.807 466.502 227.193 466.604 227.66 466.604ZM235.975 467.638C235.259 467.638 234.643 467.469 234.126 467.131C233.608 466.793 233.211 466.328 232.932 465.734C232.654 465.141 232.515 464.463 232.515 463.701C232.515 462.925 232.657 462.241 232.942 461.648C233.231 461.051 233.632 460.585 234.145 460.251C234.662 459.913 235.266 459.744 235.955 459.744C236.492 459.744 236.976 459.843 237.407 460.042C237.838 460.241 238.191 460.519 238.466 460.877C238.741 461.235 238.912 461.653 238.978 462.13H237.805C237.715 461.782 237.516 461.474 237.208 461.205C236.903 460.933 236.492 460.798 235.975 460.798C235.518 460.798 235.117 460.917 234.772 461.155C234.43 461.391 234.164 461.724 233.971 462.155C233.782 462.582 233.688 463.084 233.688 463.661C233.688 464.251 233.781 464.765 233.966 465.202C234.155 465.64 234.421 465.98 234.762 466.222C235.107 466.463 235.511 466.584 235.975 466.584C236.28 466.584 236.557 466.531 236.805 466.425C237.054 466.319 237.264 466.167 237.437 465.968C237.609 465.769 237.732 465.53 237.805 465.252H238.978C238.912 465.703 238.747 466.109 238.486 466.47C238.227 466.828 237.884 467.113 237.456 467.325C237.032 467.534 236.538 467.638 235.975 467.638ZM243.545 467.638C242.829 467.638 242.213 467.469 241.696 467.131C241.179 466.793 240.781 466.328 240.503 465.734C240.224 465.141 240.085 464.463 240.085 463.701C240.085 462.925 240.228 462.241 240.513 461.648C240.801 461.051 241.202 460.585 241.716 460.251C242.233 459.913 242.836 459.744 243.525 459.744C244.062 459.744 244.546 459.843 244.977 460.042C245.408 460.241 245.761 460.519 246.036 460.877C246.311 461.235 246.482 461.653 246.548 462.13H245.375C245.285 461.782 245.086 461.474 244.778 461.205C244.473 460.933 244.062 460.798 243.545 460.798C243.088 460.798 242.687 460.917 242.342 461.155C242.001 461.391 241.734 461.724 241.542 462.155C241.353 462.582 241.258 463.084 241.258 463.661C241.258 464.251 241.351 464.765 241.537 465.202C241.726 465.64 241.991 465.98 242.332 466.222C242.677 466.463 243.081 466.584 243.545 466.584C243.85 466.584 244.127 466.531 244.376 466.425C244.624 466.319 244.835 466.167 245.007 465.968C245.179 465.769 245.302 465.53 245.375 465.252H246.548C246.482 465.703 246.318 466.109 246.056 466.47C245.797 466.828 245.454 467.113 245.027 467.325C244.603 467.534 244.109 467.638 243.545 467.638ZM251.116 467.638C250.426 467.638 249.821 467.474 249.301 467.146C248.784 466.818 248.38 466.359 248.088 465.769C247.8 465.179 247.655 464.49 247.655 463.701C247.655 462.905 247.8 462.211 248.088 461.618C248.38 461.025 248.784 460.564 249.301 460.236C249.821 459.908 250.426 459.744 251.116 459.744C251.805 459.744 252.408 459.908 252.925 460.236C253.446 460.564 253.85 461.025 254.138 461.618C254.43 462.211 254.576 462.905 254.576 463.701C254.576 464.49 254.43 465.179 254.138 465.769C253.85 466.359 253.446 466.818 252.925 467.146C252.408 467.474 251.805 467.638 251.116 467.638ZM251.116 466.584C251.639 466.584 252.07 466.45 252.408 466.182C252.746 465.913 252.997 465.56 253.159 465.123C253.321 464.685 253.403 464.211 253.403 463.701C253.403 463.191 253.321 462.715 253.159 462.274C252.997 461.833 252.746 461.477 252.408 461.205C252.07 460.933 251.639 460.798 251.116 460.798C250.592 460.798 250.161 460.933 249.823 461.205C249.485 461.477 249.235 461.833 249.072 462.274C248.91 462.715 248.829 463.191 248.829 463.701C248.829 464.211 248.91 464.685 249.072 465.123C249.235 465.56 249.485 465.913 249.823 466.182C250.161 466.45 250.592 466.584 251.116 466.584ZM260.929 464.357V459.843H262.103V467.479H260.929V466.187H260.85C260.671 466.575 260.392 466.904 260.015 467.176C259.637 467.445 259.159 467.579 258.583 467.579C258.105 467.579 257.681 467.474 257.31 467.266C256.939 467.053 256.647 466.735 256.435 466.311C256.223 465.883 256.117 465.345 256.117 464.695V459.843H257.29V464.616C257.29 465.173 257.446 465.617 257.757 465.948C258.072 466.28 258.473 466.445 258.961 466.445C259.252 466.445 259.549 466.371 259.85 466.222C260.155 466.072 260.411 465.844 260.616 465.535C260.825 465.227 260.929 464.834 260.929 464.357ZM265.175 462.886V467.479H264.002V459.843H265.135V461.036H265.235C265.414 460.648 265.685 460.337 266.05 460.101C266.414 459.863 266.885 459.744 267.462 459.744C267.979 459.744 268.431 459.85 268.819 460.062C269.207 460.271 269.508 460.589 269.724 461.016C269.939 461.441 270.047 461.977 270.047 462.627V467.479H268.874V462.707C268.874 462.107 268.718 461.639 268.406 461.305C268.095 460.967 267.667 460.798 267.124 460.798C266.749 460.798 266.414 460.879 266.119 461.041C265.828 461.204 265.597 461.441 265.428 461.752C265.259 462.064 265.175 462.441 265.175 462.886ZM275.262 459.843V460.837H271.305V459.843H275.262ZM272.458 458.013H273.631V465.292C273.631 465.623 273.679 465.872 273.776 466.038C273.875 466.2 274.001 466.309 274.153 466.366C274.309 466.419 274.473 466.445 274.646 466.445C274.775 466.445 274.881 466.439 274.964 466.425C275.047 466.409 275.113 466.396 275.163 466.386L275.401 467.44C275.322 467.469 275.211 467.499 275.068 467.529C274.926 467.562 274.745 467.579 274.526 467.579C274.195 467.579 273.87 467.508 273.552 467.365C273.237 467.222 272.975 467.005 272.766 466.714C272.561 466.422 272.458 466.054 272.458 465.61V458.013ZM278.308 464.616V464.556C278.315 463.923 278.381 463.419 278.507 463.045C278.633 462.67 278.812 462.367 279.044 462.135C279.276 461.903 279.554 461.689 279.879 461.494C280.075 461.374 280.25 461.233 280.406 461.071C280.562 460.905 280.685 460.715 280.774 460.499C280.867 460.284 280.913 460.045 280.913 459.783C280.913 459.459 280.837 459.177 280.685 458.938C280.532 458.7 280.328 458.516 280.073 458.386C279.818 458.257 279.535 458.192 279.223 458.192C278.951 458.192 278.689 458.249 278.438 458.361C278.186 458.474 277.975 458.651 277.806 458.893C277.637 459.135 277.539 459.452 277.513 459.843H276.26C276.286 459.28 276.432 458.797 276.697 458.396C276.966 457.995 277.319 457.689 277.756 457.476C278.197 457.264 278.686 457.158 279.223 457.158C279.806 457.158 280.313 457.274 280.744 457.506C281.179 457.738 281.513 458.057 281.749 458.461C281.987 458.865 282.107 459.326 282.107 459.843C282.107 460.208 282.05 460.537 281.938 460.832C281.828 461.127 281.669 461.391 281.46 461.623C281.255 461.855 281.006 462.06 280.714 462.239C280.423 462.422 280.189 462.614 280.013 462.816C279.838 463.015 279.71 463.252 279.631 463.527C279.551 463.802 279.508 464.145 279.501 464.556V464.616H278.308ZM278.945 467.559C278.699 467.559 278.489 467.471 278.313 467.295C278.138 467.12 278.05 466.909 278.05 466.664C278.05 466.419 278.138 466.208 278.313 466.033C278.489 465.857 278.699 465.769 278.945 465.769C279.19 465.769 279.4 465.857 279.576 466.033C279.752 466.208 279.839 466.419 279.839 466.664C279.839 466.826 279.798 466.976 279.715 467.111C279.636 467.247 279.528 467.357 279.392 467.44C279.259 467.519 279.11 467.559 278.945 467.559Z" fill="black"/>
<defs>
<filter id="filter0_di_1_2194" x="0" y="3.44601" width="552" height="604.237" filterUnits="userSpaceOnUse" color-interpolation-filters="sRGB">
<feFlood flood-opacity="0" result="BackgroundImageFix"/>
<feColorMatrix in="SourceAlpha" type="matrix" values="0 0 0 0 0 0 0 0 0 0 0 0 0 0 0 0 0 0 127 0" result="hardAlpha"/>
<feOffset dx="5" dy="10"/>
<feGaussianBlur stdDeviation="4"/>
<feComposite in2="hardAlpha" operator="out"/>
<feColorMatrix type="matrix" values="0 0 0 0 0 0 0 0 0 0 0 0 0 0 0 0 0 0 0.25 0"/>
<feBlend mode="normal" in2="BackgroundImageFix" result="effect1_dropShadow_1_2194"/>
<feBlend mode="normal" in="SourceGraphic" in2="effect1_dropShadow_1_2194" result="shape"/>
<feColorMatrix in="SourceAlpha" type="matrix" values="0 0 0 0 0 0 0 0 0 0 0 0 0 0 0 0 0 0 127 0" result="hardAlpha"/>
<feOffset dy="4"/>
<feGaussianBlur stdDeviation="2"/>
<feComposite in2="hardAlpha" operator="arithmetic" k2="-1" k3="1"/>
<feColorMatrix type="matrix" values="0 0 0 0 0 0 0 0 0 0 0 0 0 0 0 0 0 0 0.25 0"/>
<feBlend mode="normal" in2="shape" result="effect2_innerShadow_1_2194"/>
</filter>
</defs>
</svg>
